<svg width="22" height="22" viewBox="0 0 22 22" fill="none" xmlns="http://www.w3.org/2000/svg">
<path d="M1.60354 2.75001C1.51244 2.74872 1.42199 2.76555 1.33745 2.79952C1.25291 2.83349 1.17596 2.88393 1.11108 2.9479C1.0462 3.01187 0.994686 3.08809 0.959522 3.17214C0.924358 3.25619 0.90625 3.3464 0.90625 3.43751C0.90625 3.52862 0.924358 3.61882 0.959522 3.70287C0.994686 3.78692 1.0462 3.86315 1.11108 3.92712C1.17596 3.99109 1.25291 4.04152 1.33745 4.07549C1.42199 4.10947 1.51244 4.1263 1.60354 4.12501H2.86664C3.20028 4.12501 3.47839 4.35551 3.54161 4.6836L3.67857 5.39975L5.15652 13.1619C5.42378 14.5623 6.65765 15.5833 8.08377 15.5833H16.665C18.0911 15.5833 19.3255 14.5627 19.5922 13.1619L21.0702 5.39975C21.0891 5.30036 21.0859 5.19802 21.0608 5.10002C21.0356 5.00202 20.9892 4.91078 20.9247 4.8328C20.8602 4.75482 20.7794 4.69203 20.6878 4.64891C20.5963 4.60579 20.4964 4.5834 20.3952 4.58334H4.92198L4.89244 4.42668C4.70768 3.45838 3.85257 2.75001 2.86664 2.75001H1.60354ZM5.18427 5.95834H19.5645L18.2414 12.905C18.0966 13.6656 17.4398 14.2083 16.665 14.2083H8.08377C7.30925 14.2083 6.6529 13.6656 6.50735 12.905V12.9041L5.18427 5.95834ZM9.16604 16.5C8.80137 16.5 8.45163 16.6449 8.19377 16.9027C7.93591 17.1606 7.79104 17.5103 7.79104 17.875C7.79104 18.2397 7.93591 18.5894 8.19377 18.8473C8.45163 19.1051 8.80137 19.25 9.16604 19.25C9.53071 19.25 9.88045 19.1051 10.1383 18.8473C10.3962 18.5894 10.541 18.2397 10.541 17.875C10.541 17.5103 10.3962 17.1606 10.1383 16.9027C9.88045 16.6449 9.53071 16.5 9.16604 16.5ZM15.5827 16.5C15.218 16.5 14.8683 16.6449 14.6104 16.9027C14.3526 17.1606 14.2077 17.5103 14.2077 17.875C14.2077 18.2397 14.3526 18.5894 14.6104 18.8473C14.8683 19.1051 15.218 19.25 15.5827 19.25C15.9474 19.25 16.2971 19.1051 16.555 18.8473C16.8128 18.5894 16.9577 18.2397 16.9577 17.875C16.9577 17.5103 16.8128 17.1606 16.555 16.9027C16.2971 16.6449 15.9474 16.5 15.5827 16.5Z" fill="white"/>
</svg>
