<?xml version="1.0" encoding="utf-8"?>
<!-- Generator: Adobe Illustrator 26.3.1, SVG Export Plug-In . SVG Version: 6.00 Build 0)  -->
<svg version="1.1" xmlns="http://www.w3.org/2000/svg" xmlns:xlink="http://www.w3.org/1999/xlink" x="0px" y="0px"
	 viewBox="0 0 1080 1080" style="enable-background:new 0 0 1080 1080;" xml:space="preserve">
<style type="text/css">
	.st0{fill:#2FCA4A;}
	.st1{fill:#FFFFFF;}
	.st2{fill:#212531;}
	.st3{fill:#30CA4B;}
</style>
<g id="BG">
	<rect x="-1100" y="-1145.6" class="st0" width="1080" height="1080"/>
	<rect x="0" y="-1145.6" class="st1" width="1080" height="1080"/>
	<rect x="1100" y="-1145.6" class="st2" width="1080" height="1080"/>
	<rect x="-2200" y="-1145.6" class="st1" width="1080" height="1080"/>
	<rect x="-2200" class="st3" width="1080" height="1080"/>
	<rect x="-1100" class="st1" width="1080" height="1080"/>
	<rect x="0" class="st2" width="1080" height="1080"/>
	<rect x="2200" y="-1145.6" class="st2" width="1080" height="1080"/>
	<rect x="-1100" y="-2284.8" class="st0" width="1080" height="1080"/>
	<rect x="0" y="-2284.8" class="st1" width="1080" height="1080"/>
	<rect x="1100" y="-2284.8" class="st1" width="1080" height="1080"/>
	<rect x="-2200" y="-2284.8" class="st1" width="1080" height="1080"/>
	<rect x="2200" y="-2284.8" class="st2" width="1080" height="1080"/>
</g>
<g id="SM">
	<g>
		<g>
			<path class="st2" d="M-1815.1-1696h-19v-94.9h19V-1696z"/>
			<path class="st2" d="M-1782.7-1725.1c2,9.8,10.7,16.3,22.1,16.3c8.1,0,14.6-3,18.2-7.9h19.3c-5.2,13.8-19.7,22.8-38.2,22.8
				c-23.3,0-40.8-15.3-40.8-35.8c0-20.7,17.4-36.1,40.8-36.1c23.2,0,40.5,14.5,40.5,36.1c0,1.5,0,3.1-0.3,4.6H-1782.7z
				 M-1740.4-1734.6c-1.9-9.6-9.9-15.9-21-15.9c-11,0-19.3,6.4-21.3,15.9H-1740.4z"/>
			<path class="st2" d="M-1642.4-1696l-1.9-8.9c-6.9,6.9-16.8,11-28.3,11c-22.5,0-39.5-15.3-39.5-35.8c0-20.7,16.8-36.1,39.5-36.1
				c11.4,0,21.4,3.9,28.3,11l1.9-8.9h16.8v67.8H-1642.4z M-1668.6-1710.7c14.4,0,24-7.7,24-19c0-11.4-9.8-19.4-24-19.4
				c-14.2,0-24.5,8.1-24.5,19.4C-1693.1-1718.7-1682.8-1710.7-1668.6-1710.7z"/>
			<path class="st2" d="M-1589.3-1696h-19v-94.9h19v52.5h8.4l23.3-25.4h24.9l-31,33.9l33.8,33.9h-25.8l-25.4-25.2h-8.3V-1696z"/>
			<path class="st2" d="M-1515.2-1713.6c5.7,0,9.8,4.1,9.8,9.8c0,6.1-4.1,9.9-9.8,9.9c-6.1,0-10.2-3.8-10.2-9.9
				C-1525.4-1709.5-1521.3-1713.6-1515.2-1713.6z"/>
			<path class="st2" d="M-1473.2-1696h-19v-67.8h16.9l1.8,10.7c5.7-7.9,14.2-12.7,24.3-12.7c13.4,0,24.1,7.3,29.6,19.3
				c5.3-11.8,15.5-19.3,27.9-19.3c19.5,0,33.5,15.6,33.5,38.2v31.6h-19v-31.6c0-12.2-8-20.7-19.4-20.7s-19.1,8.5-19.1,20.7v31.6h-19
				v-31.6c0-12.2-8-20.7-19.4-20.7s-19.1,8.5-19.1,20.7V-1696z"/>
			<path class="st2" d="M-1325.8-1725.1c2,9.8,10.7,16.3,22.1,16.3c8.1,0,14.6-3,18.2-7.9h19.3c-5.2,13.8-19.7,22.8-38.2,22.8
				c-23.3,0-40.8-15.3-40.8-35.8c0-20.7,17.4-36.1,40.8-36.1c23.2,0,40.5,14.5,40.5,36.1c0,1.5,0,3.1-0.3,4.6H-1325.8z
				 M-1283.5-1734.6c-1.9-9.6-9.9-15.9-21-15.9c-11,0-19.3,6.4-21.3,15.9H-1283.5z"/>
		</g>
		<g>
			<path class="st3" d="M-1935.3-1688.7H-2056v-56.1c0-31,25.1-56.1,56.1-56.1h64.6c31,0,56.1,25.1,56.1,56.1v0
				C-1879.3-1713.8-1904.4-1688.7-1935.3-1688.7z"/>
			<g>
				<g>
					<g>
						<path class="st1" d="M-1979-1744.8c0,4.5-1.4,8.6-3.7,12.1c-3.9,5.8-10.4,9.5-17.9,9.5c-11.9,0-21.6-9.7-21.6-21.6
							s9.7-21.6,21.6-21.6c10.2,0,18.8,7.1,21,16.7C-1979.2-1748.1-1979-1746.5-1979-1744.8z"/>
						<path class="st2" d="M-2000.5-1766.4c10.2,0,18.8,7.1,21,16.7c0.4,1.6,0.6,3.2,0.6,4.9c0,4.5-1.4,8.6-3.7,12.1
							c-3.9,5.8-10.4,9.5-17.9,9.5c-11.9,0-21.6-9.7-21.6-21.6C-2022.1-1756.7-2012.5-1766.4-2000.5-1766.4 M-2000.5-1771.2
							c-14.5,0-26.4,11.8-26.4,26.4s11.8,26.4,26.4,26.4c8.8,0,17-4.4,21.9-11.6c2.9-4.3,4.5-9.4,4.5-14.7c0-2.1-0.2-4.1-0.7-6
							C-1977.6-1762.8-1988.2-1771.2-2000.5-1771.2L-2000.5-1771.2z"/>
					</g>
					<circle class="st2" cx="-1987.7" cy="-1742.4" r="10.8"/>
					<circle class="st1" cx="-1995.7" cy="-1748.3" r="4.9"/>
				</g>
				<g>
					<g>
						<path class="st1" d="M-1913.1-1744.8c0,4.5-1.4,8.6-3.7,12.1c-3.9,5.8-10.4,9.5-17.9,9.5c-11.9,0-21.6-9.7-21.6-21.6
							s9.7-21.6,21.6-21.6c10.2,0,18.8,7.1,21,16.7C-1913.3-1748.1-1913.1-1746.5-1913.1-1744.8z"/>
						<path class="st2" d="M-1934.7-1766.4c10.2,0,18.8,7.1,21,16.7c0.4,1.6,0.6,3.2,0.6,4.9c0,4.5-1.4,8.6-3.7,12.1
							c-3.9,5.8-10.4,9.5-17.9,9.5c-11.9,0-21.6-9.7-21.6-21.6C-1956.3-1756.7-1946.6-1766.4-1934.7-1766.4 M-1934.7-1771.2
							c-14.5,0-26.4,11.8-26.4,26.4s11.8,26.4,26.4,26.4c8.8,0,17-4.4,21.9-11.6c2.9-4.3,4.5-9.4,4.5-14.7c0-2.1-0.2-4.1-0.7-6
							C-1911.8-1762.8-1922.4-1771.2-1934.7-1771.2L-1934.7-1771.2z"/>
					</g>
					<circle class="st2" cx="-1921.8" cy="-1742.4" r="10.8"/>
					<circle class="st1" cx="-1929.8" cy="-1748.3" r="4.9"/>
				</g>
			</g>
		</g>
	</g>
	<g>
		<g>
			<g>
				<g>
					<path class="st1" d="M-1725.7,540c0,25.8-7.9,49.9-21.4,69.8c-22.3,33.3-60.3,55.1-103.5,55.1c-68.9,0-124.9-55.9-124.9-124.9
						c0-68.9,55.9-124.9,124.9-124.9c59.1,0,108.8,41.2,121.5,96.4C-1726.8,520.7-1725.7,530.3-1725.7,540z"/>
					<path class="st2" d="M-1850.5,415.1c59.1,0,108.8,41.2,121.5,96.4c2.2,9.2,3.3,18.7,3.3,28.4c0,25.8-7.9,49.9-21.4,69.8
						c-22.3,33.3-60.3,55.1-103.5,55.1c-68.9,0-124.9-55.9-124.9-124.9C-1975.4,471.1-1919.5,415.1-1850.5,415.1 M-1850.5,387.4
						c-84.1,0-152.6,68.5-152.6,152.6s68.5,152.6,152.6,152.6c50.9,0,98.2-25.2,126.5-67.4c17-25.1,26.1-54.6,26.1-85.2
						c0-12-1.4-23.7-4.1-35C-1718,435.9-1779.1,387.4-1850.5,387.4L-1850.5,387.4z"/>
				</g>
				<circle class="st2" cx="-1775.9" cy="553.9" r="62.4"/>
				<circle class="st1" cx="-1822.3" cy="519.6" r="28.2"/>
			</g>
			<g>
				<g>
					<path class="st1" d="M-1344.6,540c0,25.8-7.9,49.9-21.4,69.8c-22.3,33.3-60.3,55.1-103.5,55.1c-68.9,0-124.9-55.9-124.9-124.9
						c0-68.9,55.9-124.9,124.9-124.9c59.1,0,108.8,41.2,121.5,96.4C-1345.7,520.7-1344.6,530.3-1344.6,540z"/>
					<path class="st2" d="M-1469.5,415.1c59.1,0,108.8,41.2,121.5,96.4c2.2,9.2,3.3,18.7,3.3,28.4c0,25.8-7.9,49.9-21.4,69.8
						c-22.3,33.3-60.3,55.1-103.5,55.1c-68.9,0-124.9-55.9-124.9-124.9C-1594.3,471.1-1538.4,415.1-1469.5,415.1 M-1469.5,387.4
						c-84.1,0-152.6,68.5-152.6,152.6s68.5,152.6,152.6,152.6c50.9,0,98.2-25.2,126.5-67.4c17-25.1,26.1-54.6,26.1-85.2
						c0-12-1.4-23.7-4.1-35C-1337,435.9-1398.1,387.4-1469.5,387.4L-1469.5,387.4z"/>
				</g>
				<circle class="st2" cx="-1394.9" cy="553.9" r="62.4"/>
				<circle class="st1" cx="-1441.3" cy="519.6" r="28.2"/>
			</g>
		</g>
	</g>
	<g>
		<g>
			<g>
				<g>
					<path class="st1" d="M-625.7,540c0,25.8-7.9,49.9-21.4,69.8c-22.3,33.3-60.3,55.1-103.5,55.1c-68.9,0-124.9-55.9-124.9-124.9
						c0-68.9,55.9-124.9,124.9-124.9c59.1,0,108.8,41.2,121.5,96.4C-626.8,520.7-625.7,530.3-625.7,540z"/>
					<path class="st2" d="M-750.5,415.1c59.1,0,108.8,41.2,121.5,96.4c2.2,9.2,3.3,18.7,3.3,28.4c0,25.8-7.9,49.9-21.4,69.8
						c-22.3,33.3-60.3,55.1-103.5,55.1c-68.9,0-124.9-55.9-124.9-124.9C-875.4,471.1-819.5,415.1-750.5,415.1 M-750.5,387.4
						c-84.1,0-152.6,68.5-152.6,152.6s68.5,152.6,152.6,152.6c50.9,0,98.2-25.2,126.5-67.4c17-25.1,26.1-54.6,26.1-85.2
						c0-12-1.4-23.7-4.1-35C-618,435.9-679.1,387.4-750.5,387.4L-750.5,387.4z"/>
				</g>
				<circle class="st2" cx="-675.9" cy="553.9" r="62.4"/>
				<circle class="st1" cx="-722.3" cy="519.6" r="28.2"/>
			</g>
			<g>
				<g>
					<path class="st1" d="M-244.6,540c0,25.8-7.9,49.9-21.4,69.8c-22.3,33.3-60.3,55.1-103.5,55.1c-68.9,0-124.9-55.9-124.9-124.9
						c0-68.9,55.9-124.9,124.9-124.9c59.1,0,108.8,41.2,121.5,96.4C-245.7,520.7-244.6,530.3-244.6,540z"/>
					<path class="st2" d="M-369.5,415.1c59.1,0,108.8,41.2,121.5,96.4c2.2,9.2,3.3,18.7,3.3,28.4c0,25.8-7.9,49.9-21.4,69.8
						c-22.3,33.3-60.3,55.1-103.5,55.1c-68.9,0-124.9-55.9-124.9-124.9C-494.3,471.1-438.4,415.1-369.5,415.1 M-369.5,387.4
						c-84.1,0-152.6,68.5-152.6,152.6s68.5,152.6,152.6,152.6c50.9,0,98.2-25.2,126.5-67.4c17-25.1,26.1-54.6,26.1-85.2
						c0-12-1.4-23.7-4.1-35C-237,435.9-298.1,387.4-369.5,387.4L-369.5,387.4z"/>
				</g>
				<circle class="st2" cx="-294.9" cy="553.9" r="62.4"/>
				<circle class="st1" cx="-341.3" cy="519.6" r="28.2"/>
			</g>
		</g>
	</g>
	<g>
		<g>
			<g>
				<g>
					<path class="st1" d="M474.3,540c0,25.8-7.9,49.9-21.4,69.8c-22.3,33.3-60.3,55.1-103.5,55.1c-68.9,0-124.9-55.9-124.9-124.9
						c0-68.9,55.9-124.9,124.9-124.9c59.1,0,108.8,41.2,121.5,96.4C473.2,520.7,474.3,530.3,474.3,540z"/>
					<path class="st2" d="M349.5,415.1c59.1,0,108.8,41.2,121.5,96.4c2.2,9.2,3.3,18.7,3.3,28.4c0,25.8-7.9,49.9-21.4,69.8
						c-22.3,33.3-60.3,55.1-103.5,55.1c-68.9,0-124.9-55.9-124.9-124.9C224.6,471.1,280.5,415.1,349.5,415.1 M349.5,387.4
						c-84.1,0-152.6,68.5-152.6,152.6s68.5,152.6,152.6,152.6c50.9,0,98.2-25.2,126.5-67.4c17-25.1,26.1-54.6,26.1-85.2
						c0-12-1.4-23.7-4.1-35C482,435.9,420.9,387.4,349.5,387.4L349.5,387.4z"/>
				</g>
				<circle class="st2" cx="424.1" cy="553.9" r="62.4"/>
				<circle class="st1" cx="377.7" cy="519.6" r="28.2"/>
			</g>
			<g>
				<g>
					<path class="st1" d="M855.4,540c0,25.8-7.9,49.9-21.4,69.8c-22.3,33.3-60.3,55.1-103.5,55.1c-68.9,0-124.9-55.9-124.9-124.9
						c0-68.9,55.9-124.9,124.9-124.9c59.1,0,108.8,41.2,121.5,96.4C854.3,520.7,855.4,530.3,855.4,540z"/>
					<path class="st2" d="M730.5,415.1c59.1,0,108.8,41.2,121.5,96.4c2.2,9.2,3.3,18.7,3.3,28.4c0,25.8-7.9,49.9-21.4,69.8
						c-22.3,33.3-60.3,55.1-103.5,55.1c-68.9,0-124.9-55.9-124.9-124.9C605.7,471.1,661.6,415.1,730.5,415.1 M730.5,387.4
						c-84.1,0-152.6,68.5-152.6,152.6s68.5,152.6,152.6,152.6c50.9,0,98.2-25.2,126.5-67.4c17-25.1,26.1-54.6,26.1-85.2
						c0-12-1.4-23.7-4.1-35C863,435.9,801.9,387.4,730.5,387.4L730.5,387.4z"/>
				</g>
				<circle class="st2" cx="805.1" cy="553.9" r="62.4"/>
				<circle class="st1" cx="758.7" cy="519.6" r="28.2"/>
			</g>
		</g>
	</g>
	<g>
		<path class="st3" d="M-1522.2-366.2h-515v-239.4c0-132.2,107.2-239.4,239.4-239.4h275.6c132.2,0,239.4,107.2,239.4,239.4v0
			C-1282.8-473.4-1390-366.2-1522.2-366.2z"/>
		<g>
			<g>
				<g>
					<path class="st1" d="M-1708.4-605.6c0,19-5.8,36.8-15.8,51.5c-16.5,24.6-44.5,40.6-76.3,40.6c-50.9,0-92.1-41.2-92.1-92.1
						c0-50.9,41.2-92.1,92.1-92.1c43.6,0,80.2,30.4,89.6,71.1C-1709.3-619.8-1708.4-612.8-1708.4-605.6z"/>
					<path class="st2" d="M-1800.5-697.7c43.6,0,80.2,30.4,89.6,71.1c1.6,6.8,2.5,13.8,2.5,21c0,19-5.8,36.8-15.8,51.5
						c-16.5,24.6-44.5,40.6-76.3,40.6c-50.9,0-92.1-41.2-92.1-92.1C-1892.6-656.5-1851.4-697.7-1800.5-697.7 M-1800.5-718.2
						c-62.1,0-112.6,50.5-112.6,112.6s50.5,112.6,112.6,112.6c37.6,0,72.5-18.6,93.3-49.7c12.6-18.5,19.2-40.3,19.2-62.9
						c0-8.8-1-17.5-3-25.8C-1702.8-682.4-1747.9-718.2-1800.5-718.2L-1800.5-718.2z"/>
				</g>
				<circle class="st2" cx="-1745.5" cy="-595.4" r="46"/>
				<circle class="st1" cx="-1779.7" cy="-620.6" r="20.8"/>
			</g>
			<g>
				<g>
					<path class="st1" d="M-1427.4-605.6c0,19-5.8,36.8-15.8,51.5c-16.5,24.6-44.5,40.6-76.3,40.6c-50.9,0-92.1-41.2-92.1-92.1
						c0-50.9,41.2-92.1,92.1-92.1c43.6,0,80.2,30.4,89.6,71.1C-1428.2-619.8-1427.4-612.8-1427.4-605.6z"/>
					<path class="st2" d="M-1519.5-697.7c43.6,0,80.2,30.4,89.6,71.1c1.6,6.8,2.5,13.8,2.5,21c0,19-5.8,36.8-15.8,51.5
						c-16.5,24.6-44.5,40.6-76.3,40.6c-50.9,0-92.1-41.2-92.1-92.1C-1611.6-656.5-1570.3-697.7-1519.5-697.7 M-1519.5-718.2
						c-62.1,0-112.6,50.5-112.6,112.6s50.5,112.6,112.6,112.6c37.6,0,72.5-18.6,93.3-49.7c12.6-18.5,19.2-40.3,19.2-62.9
						c0-8.8-1-17.5-3-25.8C-1421.7-682.4-1466.8-718.2-1519.5-718.2L-1519.5-718.2z"/>
				</g>
				<circle class="st2" cx="-1464.4" cy="-595.4" r="46"/>
				<circle class="st1" cx="-1498.7" cy="-620.6" r="20.8"/>
			</g>
		</g>
	</g>
	<g>
		<path class="st1" d="M-422.2-366.2h-515v-239.4C-937.2-737.8-830-845-697.8-845h275.6c132.2,0,239.4,107.2,239.4,239.4v0
			C-182.8-473.4-290-366.2-422.2-366.2z"/>
		<g>
			<g>
				<g>
					<path class="st1" d="M-608.4-605.6c0,19-5.8,36.8-15.8,51.5c-16.5,24.6-44.5,40.6-76.3,40.6c-50.9,0-92.1-41.2-92.1-92.1
						c0-50.9,41.2-92.1,92.1-92.1c43.6,0,80.2,30.4,89.6,71.1C-609.3-619.8-608.4-612.8-608.4-605.6z"/>
					<path class="st2" d="M-700.5-697.7c43.6,0,80.2,30.4,89.6,71.1c1.6,6.8,2.5,13.8,2.5,21c0,19-5.8,36.8-15.8,51.5
						c-16.5,24.6-44.5,40.6-76.3,40.6c-50.9,0-92.1-41.2-92.1-92.1C-792.6-656.5-751.4-697.7-700.5-697.7 M-700.5-718.2
						c-62.1,0-112.6,50.5-112.6,112.6S-762.6-493-700.5-493c37.6,0,72.5-18.6,93.3-49.7c12.6-18.5,19.2-40.3,19.2-62.9
						c0-8.8-1-17.5-3-25.8C-602.8-682.4-647.9-718.2-700.5-718.2L-700.5-718.2z"/>
				</g>
				<circle class="st2" cx="-645.5" cy="-595.4" r="46"/>
				<circle class="st1" cx="-679.7" cy="-620.6" r="20.8"/>
			</g>
			<g>
				<g>
					<path class="st1" d="M-327.4-605.6c0,19-5.8,36.8-15.8,51.5c-16.5,24.6-44.5,40.6-76.3,40.6c-50.9,0-92.1-41.2-92.1-92.1
						c0-50.9,41.2-92.1,92.1-92.1c43.6,0,80.2,30.4,89.6,71.1C-328.2-619.8-327.4-612.8-327.4-605.6z"/>
					<path class="st2" d="M-419.5-697.7c43.6,0,80.2,30.4,89.6,71.1c1.6,6.8,2.5,13.8,2.5,21c0,19-5.8,36.8-15.8,51.5
						c-16.5,24.6-44.5,40.6-76.3,40.6c-50.9,0-92.1-41.2-92.1-92.1C-511.6-656.5-470.3-697.7-419.5-697.7 M-419.5-718.2
						c-62.1,0-112.6,50.5-112.6,112.6S-481.5-493-419.5-493c37.6,0,72.5-18.6,93.3-49.7c12.6-18.5,19.2-40.3,19.2-62.9
						c0-8.8-1-17.5-3-25.8C-321.7-682.4-366.8-718.2-419.5-718.2L-419.5-718.2z"/>
				</g>
				<circle class="st2" cx="-364.4" cy="-595.4" r="46"/>
				<circle class="st1" cx="-398.7" cy="-620.6" r="20.8"/>
			</g>
		</g>
	</g>
	<g>
		<path class="st1" d="M2877.8-366.2h-515v-239.4c0-132.2,107.2-239.4,239.4-239.4h275.6c132.2,0,239.4,107.2,239.4,239.4v0
			C3117.2-473.4,3010-366.2,2877.8-366.2z"/>
		<g>
			<g>
				<g>
					<path class="st1" d="M2691.6-605.6c0,19-5.8,36.8-15.8,51.5c-16.5,24.6-44.5,40.6-76.3,40.6c-50.9,0-92.1-41.2-92.1-92.1
						c0-50.9,41.2-92.1,92.1-92.1c43.6,0,80.2,30.4,89.6,71.1C2690.7-619.8,2691.6-612.8,2691.6-605.6z"/>
					<path class="st2" d="M2599.5-697.7c43.6,0,80.2,30.4,89.6,71.1c1.6,6.8,2.5,13.8,2.5,21c0,19-5.8,36.8-15.8,51.5
						c-16.5,24.6-44.5,40.6-76.3,40.6c-50.9,0-92.1-41.2-92.1-92.1C2507.4-656.5,2548.6-697.7,2599.5-697.7 M2599.5-718.2
						c-62.1,0-112.6,50.5-112.6,112.6S2537.4-493,2599.5-493c37.6,0,72.5-18.6,93.3-49.7c12.6-18.5,19.2-40.3,19.2-62.9
						c0-8.8-1-17.5-3-25.8C2697.2-682.4,2652.1-718.2,2599.5-718.2L2599.5-718.2z"/>
				</g>
				<circle class="st2" cx="2654.5" cy="-595.4" r="46"/>
				<circle class="st1" cx="2620.3" cy="-620.6" r="20.8"/>
			</g>
			<g>
				<g>
					<path class="st1" d="M2972.6-605.6c0,19-5.8,36.8-15.8,51.5c-16.5,24.6-44.5,40.6-76.3,40.6c-50.9,0-92.1-41.2-92.1-92.1
						c0-50.9,41.2-92.1,92.1-92.1c43.6,0,80.2,30.4,89.6,71.1C2971.8-619.8,2972.6-612.8,2972.6-605.6z"/>
					<path class="st2" d="M2880.5-697.7c43.6,0,80.2,30.4,89.6,71.1c1.6,6.8,2.5,13.8,2.5,21c0,19-5.8,36.8-15.8,51.5
						c-16.5,24.6-44.5,40.6-76.3,40.6c-50.9,0-92.1-41.2-92.1-92.1C2788.4-656.5,2829.7-697.7,2880.5-697.7 M2880.5-718.2
						c-62.1,0-112.6,50.5-112.6,112.6S2818.5-493,2880.5-493c37.6,0,72.5-18.6,93.3-49.7c12.6-18.5,19.2-40.3,19.2-62.9
						c0-8.8-1-17.5-3-25.8C2978.3-682.4,2933.2-718.2,2880.5-718.2L2880.5-718.2z"/>
				</g>
				<circle class="st2" cx="2935.6" cy="-595.4" r="46"/>
				<circle class="st1" cx="2901.3" cy="-620.6" r="20.8"/>
			</g>
		</g>
	</g>
	<g>
		<path class="st2" d="M677.8-366.2h-515v-239.4C162.8-737.8,270-845,402.2-845h275.6c132.2,0,239.4,107.2,239.4,239.4v0
			C917.2-473.4,810-366.2,677.8-366.2z"/>
		<g>
			<g>
				<g>
					<path class="st1" d="M491.6-605.6c0,19-5.8,36.8-15.8,51.5c-16.5,24.6-44.5,40.6-76.3,40.6c-50.9,0-92.1-41.2-92.1-92.1
						c0-50.9,41.2-92.1,92.1-92.1c43.6,0,80.2,30.4,89.6,71.1C490.7-619.8,491.6-612.8,491.6-605.6z"/>
					<path class="st2" d="M399.5-697.7c43.6,0,80.2,30.4,89.6,71.1c1.6,6.8,2.5,13.8,2.5,21c0,19-5.8,36.8-15.8,51.5
						c-16.5,24.6-44.5,40.6-76.3,40.6c-50.9,0-92.1-41.2-92.1-92.1C307.4-656.5,348.6-697.7,399.5-697.7 M399.5-718.2
						c-62.1,0-112.6,50.5-112.6,112.6S337.4-493,399.5-493c37.6,0,72.5-18.6,93.3-49.7c12.6-18.5,19.2-40.3,19.2-62.9
						c0-8.8-1-17.5-3-25.8C497.2-682.4,452.1-718.2,399.5-718.2L399.5-718.2z"/>
				</g>
				<circle class="st2" cx="454.5" cy="-595.4" r="46"/>
				<circle class="st1" cx="420.3" cy="-620.6" r="20.8"/>
			</g>
			<g>
				<g>
					<path class="st1" d="M772.6-605.6c0,19-5.8,36.8-15.8,51.5c-16.5,24.6-44.5,40.6-76.3,40.6c-50.9,0-92.1-41.2-92.1-92.1
						c0-50.9,41.2-92.1,92.1-92.1c43.6,0,80.2,30.4,89.6,71.1C771.8-619.8,772.6-612.8,772.6-605.6z"/>
					<path class="st2" d="M680.5-697.7c43.6,0,80.2,30.4,89.6,71.1c1.6,6.8,2.5,13.8,2.5,21c0,19-5.8,36.8-15.8,51.5
						c-16.5,24.6-44.5,40.6-76.3,40.6c-50.9,0-92.1-41.2-92.1-92.1C588.4-656.5,629.7-697.7,680.5-697.7 M680.5-718.2
						c-62.1,0-112.6,50.5-112.6,112.6S618.5-493,680.5-493c37.6,0,72.5-18.6,93.3-49.7c12.6-18.5,19.2-40.3,19.2-62.9
						c0-8.8-1-17.5-3-25.8C778.3-682.4,733.2-718.2,680.5-718.2L680.5-718.2z"/>
				</g>
				<circle class="st2" cx="735.6" cy="-595.4" r="46"/>
				<circle class="st1" cx="701.3" cy="-620.6" r="20.8"/>
			</g>
		</g>
	</g>
	<g>
		<path class="st0" d="M1777.8-366.2h-515v-239.4c0-132.2,107.2-239.4,239.4-239.4h275.6c132.2,0,239.4,107.2,239.4,239.4v0
			C2017.2-473.4,1910-366.2,1777.8-366.2z"/>
		<g>
			<g>
				<g>
					<path class="st1" d="M1591.6-605.6c0,19-5.8,36.8-15.8,51.5c-16.5,24.6-44.5,40.6-76.3,40.6c-50.9,0-92.1-41.2-92.1-92.1
						c0-50.9,41.2-92.1,92.1-92.1c43.6,0,80.2,30.4,89.6,71.1C1590.7-619.8,1591.6-612.8,1591.6-605.6z"/>
					<path class="st2" d="M1499.5-697.7c43.6,0,80.2,30.4,89.6,71.1c1.6,6.8,2.5,13.8,2.5,21c0,19-5.8,36.8-15.8,51.5
						c-16.5,24.6-44.5,40.6-76.3,40.6c-50.9,0-92.1-41.2-92.1-92.1C1407.4-656.5,1448.6-697.7,1499.5-697.7 M1499.5-718.2
						c-62.1,0-112.6,50.5-112.6,112.6S1437.4-493,1499.5-493c37.6,0,72.5-18.6,93.3-49.7c12.6-18.5,19.2-40.3,19.2-62.9
						c0-8.8-1-17.5-3-25.8C1597.2-682.4,1552.1-718.2,1499.5-718.2L1499.5-718.2z"/>
				</g>
				<circle class="st2" cx="1554.5" cy="-595.4" r="46"/>
				<circle class="st1" cx="1520.3" cy="-620.6" r="20.8"/>
			</g>
			<g>
				<g>
					<path class="st1" d="M1872.6-605.6c0,19-5.8,36.8-15.8,51.5c-16.5,24.6-44.5,40.6-76.3,40.6c-50.9,0-92.1-41.2-92.1-92.1
						c0-50.9,41.2-92.1,92.1-92.1c43.6,0,80.2,30.4,89.6,71.1C1871.8-619.8,1872.6-612.8,1872.6-605.6z"/>
					<path class="st2" d="M1780.5-697.7c43.6,0,80.2,30.4,89.6,71.1c1.6,6.8,2.5,13.8,2.5,21c0,19-5.8,36.8-15.8,51.5
						c-16.5,24.6-44.5,40.6-76.3,40.6c-50.9,0-92.1-41.2-92.1-92.1C1688.4-656.5,1729.7-697.7,1780.5-697.7 M1780.5-718.2
						c-62.1,0-112.6,50.5-112.6,112.6S1718.5-493,1780.5-493c37.6,0,72.5-18.6,93.3-49.7c12.6-18.5,19.2-40.3,19.2-62.9
						c0-8.8-1-17.5-3-25.8C1878.3-682.4,1833.2-718.2,1780.5-718.2L1780.5-718.2z"/>
				</g>
				<circle class="st2" cx="1835.6" cy="-595.4" r="46"/>
				<circle class="st1" cx="1801.3" cy="-620.6" r="20.8"/>
			</g>
		</g>
	</g>
	<g>
		<g>
			<path class="st1" d="M-715.1-1696h-19v-94.9h19V-1696z"/>
			<path class="st1" d="M-682.7-1725.1c2,9.8,10.7,16.3,22.1,16.3c8.1,0,14.6-3,18.2-7.9h19.3c-5.2,13.8-19.7,22.8-38.2,22.8
				c-23.3,0-40.8-15.3-40.8-35.8c0-20.7,17.4-36.1,40.8-36.1c23.2,0,40.5,14.5,40.5,36.1c0,1.5,0,3.1-0.3,4.6H-682.7z
				 M-640.4-1734.6c-1.9-9.6-9.9-15.9-21-15.9c-11,0-19.3,6.4-21.3,15.9H-640.4z"/>
			<path class="st1" d="M-542.4-1696l-1.9-8.9c-6.9,6.9-16.8,11-28.3,11c-22.5,0-39.5-15.3-39.5-35.8c0-20.7,16.8-36.1,39.5-36.1
				c11.4,0,21.4,3.9,28.3,11l1.9-8.9h16.8v67.8H-542.4z M-568.6-1710.7c14.4,0,24-7.7,24-19c0-11.4-9.8-19.4-24-19.4
				c-14.2,0-24.5,8.1-24.5,19.4C-593.1-1718.7-582.8-1710.7-568.6-1710.7z"/>
			<path class="st1" d="M-489.3-1696h-19v-94.9h19v52.5h8.4l23.3-25.4h24.9l-31,33.9l33.8,33.9h-25.8l-25.4-25.2h-8.3V-1696z"/>
			<path class="st1" d="M-415.2-1713.6c5.7,0,9.8,4.1,9.8,9.8c0,6.1-4.1,9.9-9.8,9.9c-6.1,0-10.2-3.8-10.2-9.9
				C-425.4-1709.5-421.3-1713.6-415.2-1713.6z"/>
			<path class="st1" d="M-373.2-1696h-19v-67.8h16.9l1.8,10.7c5.7-7.9,14.2-12.7,24.3-12.7c13.4,0,24.1,7.3,29.6,19.3
				c5.3-11.8,15.5-19.3,27.9-19.3c19.5,0,33.5,15.6,33.5,38.2v31.6h-19v-31.6c0-12.2-8-20.7-19.4-20.7s-19.1,8.5-19.1,20.7v31.6h-19
				v-31.6c0-12.2-8-20.7-19.4-20.7c-11.4,0-19.1,8.5-19.1,20.7V-1696z"/>
			<path class="st1" d="M-225.8-1725.1c2,9.8,10.7,16.3,22.1,16.3c8.1,0,14.6-3,18.2-7.9h19.3c-5.2,13.8-19.7,22.8-38.2,22.8
				c-23.3,0-40.8-15.3-40.8-35.8c0-20.7,17.4-36.1,40.8-36.1c23.2,0,40.5,14.5,40.5,36.1c0,1.5,0,3.1-0.3,4.6H-225.8z
				 M-183.5-1734.6c-1.9-9.6-9.9-15.9-21-15.9c-11,0-19.3,6.4-21.3,15.9H-183.5z"/>
		</g>
		<g>
			<path class="st1" d="M-835.3-1688.7H-956v-56.1c0-31,25.1-56.1,56.1-56.1h64.6c31,0,56.1,25.1,56.1,56.1v0
				C-779.3-1713.8-804.4-1688.7-835.3-1688.7z"/>
			<g>
				<g>
					<g>
						<path class="st1" d="M-879-1744.8c0,4.5-1.4,8.6-3.7,12.1c-3.9,5.8-10.4,9.5-17.9,9.5c-11.9,0-21.6-9.7-21.6-21.6
							s9.7-21.6,21.6-21.6c10.2,0,18.8,7.1,21,16.7C-879.2-1748.1-879-1746.5-879-1744.8z"/>
						<path class="st2" d="M-900.5-1766.4c10.2,0,18.8,7.1,21,16.7c0.4,1.6,0.6,3.2,0.6,4.9c0,4.5-1.4,8.6-3.7,12.1
							c-3.9,5.8-10.4,9.5-17.9,9.5c-11.9,0-21.6-9.7-21.6-21.6C-922.1-1756.7-912.5-1766.4-900.5-1766.4 M-900.5-1771.2
							c-14.5,0-26.4,11.8-26.4,26.4s11.8,26.4,26.4,26.4c8.8,0,17-4.4,21.9-11.6c2.9-4.3,4.5-9.4,4.5-14.7c0-2.1-0.2-4.1-0.7-6
							C-877.6-1762.8-888.2-1771.2-900.5-1771.2L-900.5-1771.2z"/>
					</g>
					<circle class="st2" cx="-887.7" cy="-1742.4" r="10.8"/>
					<circle class="st1" cx="-895.7" cy="-1748.3" r="4.9"/>
				</g>
				<g>
					<g>
						<path class="st1" d="M-813.1-1744.8c0,4.5-1.4,8.6-3.7,12.1c-3.9,5.8-10.4,9.5-17.9,9.5c-11.9,0-21.6-9.7-21.6-21.6
							s9.7-21.6,21.6-21.6c10.2,0,18.8,7.1,21,16.7C-813.3-1748.1-813.1-1746.5-813.1-1744.8z"/>
						<path class="st2" d="M-834.7-1766.4c10.2,0,18.8,7.1,21,16.7c0.4,1.6,0.6,3.2,0.6,4.9c0,4.5-1.4,8.6-3.7,12.1
							c-3.9,5.8-10.4,9.5-17.9,9.5c-11.9,0-21.6-9.7-21.6-21.6C-856.3-1756.7-846.6-1766.4-834.7-1766.4 M-834.7-1771.2
							c-14.5,0-26.4,11.8-26.4,26.4s11.8,26.4,26.4,26.4c8.8,0,17-4.4,21.9-11.6c2.9-4.3,4.5-9.4,4.5-14.7c0-2.1-0.2-4.1-0.7-6
							C-811.8-1762.8-822.4-1771.2-834.7-1771.2L-834.7-1771.2z"/>
					</g>
					<circle class="st2" cx="-821.8" cy="-1742.4" r="10.8"/>
					<circle class="st1" cx="-829.8" cy="-1748.3" r="4.9"/>
				</g>
			</g>
		</g>
	</g>
	<g>
		<g>
			<path class="st0" d="M384.9-1696h-19v-94.9h19V-1696z"/>
			<path class="st0" d="M417.3-1725.1c2,9.8,10.7,16.3,22.1,16.3c8.1,0,14.6-3,18.2-7.9h19.3c-5.2,13.8-19.7,22.8-38.2,22.8
				c-23.3,0-40.8-15.3-40.8-35.8c0-20.7,17.4-36.1,40.8-36.1c23.2,0,40.5,14.5,40.5,36.1c0,1.5,0,3.1-0.3,4.6H417.3z M459.6-1734.6
				c-1.9-9.6-9.9-15.9-21-15.9c-11,0-19.3,6.4-21.3,15.9H459.6z"/>
			<path class="st0" d="M557.6-1696l-1.9-8.9c-6.9,6.9-16.8,11-28.3,11c-22.5,0-39.5-15.3-39.5-35.8c0-20.7,16.8-36.1,39.5-36.1
				c11.4,0,21.4,3.9,28.3,11l1.9-8.9h16.8v67.8H557.6z M531.4-1710.7c14.4,0,24-7.7,24-19c0-11.4-9.8-19.4-24-19.4
				c-14.2,0-24.5,8.1-24.5,19.4C506.9-1718.7,517.2-1710.7,531.4-1710.7z"/>
			<path class="st0" d="M610.7-1696h-19v-94.9h19v52.5h8.4l23.3-25.4h24.9l-31,33.9l33.8,33.9h-25.8l-25.4-25.2h-8.3V-1696z"/>
			<path class="st0" d="M684.8-1713.6c5.7,0,9.8,4.1,9.8,9.8c0,6.1-4.1,9.9-9.8,9.9c-6.1,0-10.2-3.8-10.2-9.9
				C674.6-1709.5,678.7-1713.6,684.8-1713.6z"/>
			<path class="st0" d="M726.8-1696h-19v-67.8h16.9l1.8,10.7c5.7-7.9,14.2-12.7,24.3-12.7c13.4,0,24.1,7.3,29.6,19.3
				c5.3-11.8,15.5-19.3,27.9-19.3c19.5,0,33.5,15.6,33.5,38.2v31.6h-19v-31.6c0-12.2-8-20.7-19.4-20.7s-19.1,8.5-19.1,20.7v31.6h-19
				v-31.6c0-12.2-8-20.7-19.4-20.7c-11.4,0-19.1,8.5-19.1,20.7V-1696z"/>
			<path class="st0" d="M874.2-1725.1c2,9.8,10.7,16.3,22.1,16.3c8.1,0,14.6-3,18.2-7.9h19.3c-5.2,13.8-19.7,22.8-38.2,22.8
				c-23.3,0-40.8-15.3-40.8-35.8c0-20.7,17.4-36.1,40.8-36.1c23.2,0,40.5,14.5,40.5,36.1c0,1.5,0,3.1-0.3,4.6H874.2z M916.5-1734.6
				c-1.9-9.6-9.9-15.9-21-15.9c-11,0-19.3,6.4-21.3,15.9H916.5z"/>
		</g>
		<g>
			<path class="st0" d="M264.7-1688.7H144v-56.1c0-31,25.1-56.1,56.1-56.1h64.6c31,0,56.1,25.1,56.1,56.1v0
				C320.7-1713.8,295.6-1688.7,264.7-1688.7z"/>
			<g>
				<g>
					<g>
						<path class="st1" d="M221-1744.8c0,4.5-1.4,8.6-3.7,12.1c-3.9,5.8-10.4,9.5-17.9,9.5c-11.9,0-21.6-9.7-21.6-21.6
							s9.7-21.6,21.6-21.6c10.2,0,18.8,7.1,21,16.7C220.8-1748.1,221-1746.5,221-1744.8z"/>
						<path class="st2" d="M199.5-1766.4c10.2,0,18.8,7.1,21,16.7c0.4,1.6,0.6,3.2,0.6,4.9c0,4.5-1.4,8.6-3.7,12.1
							c-3.9,5.8-10.4,9.5-17.9,9.5c-11.9,0-21.6-9.7-21.6-21.6C177.9-1756.7,187.5-1766.4,199.5-1766.4 M199.5-1771.2
							c-14.5,0-26.4,11.8-26.4,26.4s11.8,26.4,26.4,26.4c8.8,0,17-4.4,21.9-11.6c2.9-4.3,4.5-9.4,4.5-14.7c0-2.1-0.2-4.1-0.7-6
							C222.4-1762.8,211.8-1771.2,199.5-1771.2L199.5-1771.2z"/>
					</g>
					<circle class="st2" cx="212.3" cy="-1742.4" r="10.8"/>
					<circle class="st1" cx="204.3" cy="-1748.3" r="4.9"/>
				</g>
				<g>
					<g>
						<path class="st1" d="M286.9-1744.8c0,4.5-1.4,8.6-3.7,12.1c-3.9,5.8-10.4,9.5-17.9,9.5c-11.9,0-21.6-9.7-21.6-21.6
							s9.7-21.6,21.6-21.6c10.2,0,18.8,7.1,21,16.7C286.7-1748.1,286.9-1746.5,286.9-1744.8z"/>
						<path class="st2" d="M265.3-1766.4c10.2,0,18.8,7.1,21,16.7c0.4,1.6,0.6,3.2,0.6,4.9c0,4.5-1.4,8.6-3.7,12.1
							c-3.9,5.8-10.4,9.5-17.9,9.5c-11.9,0-21.6-9.7-21.6-21.6C243.7-1756.7,253.4-1766.4,265.3-1766.4 M265.3-1771.2
							c-14.5,0-26.4,11.8-26.4,26.4s11.8,26.4,26.4,26.4c8.8,0,17-4.4,21.9-11.6c2.9-4.3,4.5-9.4,4.5-14.7c0-2.1-0.2-4.1-0.7-6
							C288.2-1762.8,277.6-1771.2,265.3-1771.2L265.3-1771.2z"/>
					</g>
					<circle class="st2" cx="278.2" cy="-1742.4" r="10.8"/>
					<circle class="st1" cx="270.2" cy="-1748.3" r="4.9"/>
				</g>
			</g>
		</g>
	</g>
	<g>
		<g>
			<path class="st1" d="M2584.9-1696h-19v-94.9h19V-1696z"/>
			<path class="st1" d="M2617.3-1725.1c2,9.8,10.7,16.3,22.1,16.3c8.1,0,14.6-3,18.2-7.9h19.3c-5.2,13.8-19.7,22.8-38.2,22.8
				c-23.3,0-40.8-15.3-40.8-35.8c0-20.7,17.4-36.1,40.8-36.1c23.2,0,40.5,14.5,40.5,36.1c0,1.5,0,3.1-0.3,4.6H2617.3z
				 M2659.6-1734.6c-1.9-9.6-9.9-15.9-21-15.9c-11,0-19.3,6.4-21.3,15.9H2659.6z"/>
			<path class="st1" d="M2757.6-1696l-1.9-8.9c-6.9,6.9-16.8,11-28.3,11c-22.5,0-39.5-15.3-39.5-35.8c0-20.7,16.8-36.1,39.5-36.1
				c11.4,0,21.4,3.9,28.3,11l1.9-8.9h16.8v67.8H2757.6z M2731.4-1710.7c14.4,0,24-7.7,24-19c0-11.4-9.8-19.4-24-19.4
				c-14.2,0-24.5,8.1-24.5,19.4C2706.9-1718.7,2717.2-1710.7,2731.4-1710.7z"/>
			<path class="st1" d="M2810.7-1696h-19v-94.9h19v52.5h8.4l23.3-25.4h24.9l-31,33.9l33.8,33.9h-25.8l-25.4-25.2h-8.3V-1696z"/>
			<path class="st1" d="M2884.8-1713.6c5.7,0,9.8,4.1,9.8,9.8c0,6.1-4.1,9.9-9.8,9.9c-6.1,0-10.2-3.8-10.2-9.9
				C2874.6-1709.5,2878.7-1713.6,2884.8-1713.6z"/>
			<path class="st1" d="M2926.8-1696h-19v-67.8h16.9l1.8,10.7c5.7-7.9,14.2-12.7,24.3-12.7c13.4,0,24.1,7.3,29.6,19.3
				c5.3-11.8,15.5-19.3,27.9-19.3c19.5,0,33.5,15.6,33.5,38.2v31.6h-19v-31.6c0-12.2-8-20.7-19.4-20.7s-19.1,8.5-19.1,20.7v31.6h-19
				v-31.6c0-12.2-8-20.7-19.4-20.7s-19.1,8.5-19.1,20.7V-1696z"/>
			<path class="st1" d="M3074.2-1725.1c2,9.8,10.7,16.3,22.1,16.3c8.1,0,14.6-3,18.2-7.9h19.3c-5.2,13.8-19.7,22.8-38.2,22.8
				c-23.3,0-40.8-15.3-40.8-35.8c0-20.7,17.4-36.1,40.8-36.1c23.2,0,40.5,14.5,40.5,36.1c0,1.5,0,3.1-0.3,4.6H3074.2z
				 M3116.5-1734.6c-1.9-9.6-9.9-15.9-21-15.9c-11,0-19.3,6.4-21.3,15.9H3116.5z"/>
		</g>
		<g>
			<path class="st0" d="M2464.7-1688.7H2344v-56.1c0-31,25.1-56.1,56.1-56.1h64.6c31,0,56.1,25.1,56.1,56.1v0
				C2520.7-1713.8,2495.6-1688.7,2464.7-1688.7z"/>
			<g>
				<g>
					<g>
						<path class="st1" d="M2421-1744.8c0,4.5-1.4,8.6-3.7,12.1c-3.9,5.8-10.4,9.5-17.9,9.5c-11.9,0-21.6-9.7-21.6-21.6
							s9.7-21.6,21.6-21.6c10.2,0,18.8,7.1,21,16.7C2420.8-1748.1,2421-1746.5,2421-1744.8z"/>
						<path class="st2" d="M2399.5-1766.4c10.2,0,18.8,7.1,21,16.7c0.4,1.6,0.6,3.2,0.6,4.9c0,4.5-1.4,8.6-3.7,12.1
							c-3.9,5.8-10.4,9.5-17.9,9.5c-11.9,0-21.6-9.7-21.6-21.6C2377.9-1756.7,2387.5-1766.4,2399.5-1766.4 M2399.5-1771.2
							c-14.5,0-26.4,11.8-26.4,26.4s11.8,26.4,26.4,26.4c8.8,0,17-4.4,21.9-11.6c2.9-4.3,4.5-9.4,4.5-14.7c0-2.1-0.2-4.1-0.7-6
							C2422.4-1762.8,2411.8-1771.2,2399.5-1771.2L2399.5-1771.2z"/>
					</g>
					<circle class="st2" cx="2412.3" cy="-1742.4" r="10.8"/>
					<circle class="st1" cx="2404.3" cy="-1748.3" r="4.9"/>
				</g>
				<g>
					<g>
						<path class="st1" d="M2486.9-1744.8c0,4.5-1.4,8.6-3.7,12.1c-3.9,5.8-10.4,9.5-17.9,9.5c-11.9,0-21.6-9.7-21.6-21.6
							s9.7-21.6,21.6-21.6c10.2,0,18.8,7.1,21,16.7C2486.7-1748.1,2486.9-1746.5,2486.9-1744.8z"/>
						<path class="st2" d="M2465.3-1766.4c10.2,0,18.8,7.1,21,16.7c0.4,1.6,0.6,3.2,0.6,4.9c0,4.5-1.4,8.6-3.7,12.1
							c-3.9,5.8-10.4,9.5-17.9,9.5c-11.9,0-21.6-9.7-21.6-21.6C2443.7-1756.7,2453.4-1766.4,2465.3-1766.4 M2465.3-1771.2
							c-14.5,0-26.4,11.8-26.4,26.4s11.8,26.4,26.4,26.4c8.8,0,17-4.4,21.9-11.6c2.9-4.3,4.5-9.4,4.5-14.7c0-2.1-0.2-4.1-0.7-6
							C2488.2-1762.8,2477.6-1771.2,2465.3-1771.2L2465.3-1771.2z"/>
					</g>
					<circle class="st2" cx="2478.2" cy="-1742.4" r="10.8"/>
					<circle class="st1" cx="2470.2" cy="-1748.3" r="4.9"/>
				</g>
			</g>
		</g>
	</g>
	<g>
		<g>
			<g>
				<path class="st2" d="M1484.9-1696h-19v-94.9h19V-1696z"/>
				<path class="st2" d="M1517.3-1725.1c2,9.8,10.7,16.3,22.1,16.3c8.1,0,14.6-3,18.2-7.9h19.3c-5.2,13.8-19.7,22.8-38.2,22.8
					c-23.3,0-40.8-15.3-40.8-35.8c0-20.7,17.4-36.1,40.8-36.1c23.2,0,40.5,14.5,40.5,36.1c0,1.5,0,3.1-0.3,4.6H1517.3z
					 M1559.6-1734.6c-1.9-9.6-9.9-15.9-21-15.9c-11,0-19.3,6.4-21.3,15.9H1559.6z"/>
				<path class="st2" d="M1657.6-1696l-1.9-8.9c-6.9,6.9-16.8,11-28.3,11c-22.5,0-39.5-15.3-39.5-35.8c0-20.7,16.8-36.1,39.5-36.1
					c11.4,0,21.4,3.9,28.3,11l1.9-8.9h16.8v67.8H1657.6z M1631.4-1710.7c14.4,0,24-7.7,24-19c0-11.4-9.8-19.4-24-19.4
					c-14.2,0-24.5,8.1-24.5,19.4C1606.9-1718.7,1617.2-1710.7,1631.4-1710.7z"/>
				<path class="st2" d="M1710.7-1696h-19v-94.9h19v52.5h8.4l23.3-25.4h24.9l-31,33.9l33.8,33.9h-25.8l-25.4-25.2h-8.3V-1696z"/>
				<path class="st2" d="M1784.8-1713.6c5.7,0,9.8,4.1,9.8,9.8c0,6.1-4.1,9.9-9.8,9.9c-6.1,0-10.2-3.8-10.2-9.9
					C1774.6-1709.5,1778.7-1713.6,1784.8-1713.6z"/>
				<path class="st2" d="M1826.8-1696h-19v-67.8h16.9l1.8,10.7c5.7-7.9,14.2-12.7,24.3-12.7c13.4,0,24.1,7.3,29.6,19.3
					c5.3-11.8,15.5-19.3,27.9-19.3c19.5,0,33.5,15.6,33.5,38.2v31.6h-19v-31.6c0-12.2-8-20.7-19.4-20.7s-19.1,8.5-19.1,20.7v31.6
					h-19v-31.6c0-12.2-8-20.7-19.4-20.7s-19.1,8.5-19.1,20.7V-1696z"/>
				<path class="st2" d="M1974.2-1725.1c2,9.8,10.7,16.3,22.1,16.3c8.1,0,14.6-3,18.2-7.9h19.3c-5.2,13.8-19.7,22.8-38.2,22.8
					c-23.3,0-40.8-15.3-40.8-35.8c0-20.7,17.4-36.1,40.8-36.1c23.2,0,40.5,14.5,40.5,36.1c0,1.5,0,3.1-0.3,4.6H1974.2z
					 M2016.5-1734.6c-1.9-9.6-9.9-15.9-21-15.9c-11,0-19.3,6.4-21.3,15.9H2016.5z"/>
			</g>
		</g>
		<g>
			<path class="st2" d="M1364.7-1688.7H1244v-56.1c0-31,25.1-56.1,56.1-56.1h64.6c31,0,56.1,25.1,56.1,56.1v0
				C1420.7-1713.8,1395.6-1688.7,1364.7-1688.7z"/>
			<g>
				<g>
					<g>
						<path class="st1" d="M1321-1744.8c0,4.5-1.4,8.6-3.7,12.1c-3.9,5.8-10.4,9.5-17.9,9.5c-11.9,0-21.6-9.7-21.6-21.6
							s9.7-21.6,21.6-21.6c10.2,0,18.8,7.1,21,16.7C1320.8-1748.1,1321-1746.5,1321-1744.8z"/>
						<path class="st2" d="M1299.5-1766.4c10.2,0,18.8,7.1,21,16.7c0.4,1.6,0.6,3.2,0.6,4.9c0,4.5-1.4,8.6-3.7,12.1
							c-3.9,5.8-10.4,9.5-17.9,9.5c-11.9,0-21.6-9.7-21.6-21.6C1277.9-1756.7,1287.5-1766.4,1299.5-1766.4 M1299.5-1771.2
							c-14.5,0-26.4,11.8-26.4,26.4s11.8,26.4,26.4,26.4c8.8,0,17-4.4,21.9-11.6c2.9-4.3,4.5-9.4,4.5-14.7c0-2.1-0.2-4.1-0.7-6
							C1322.4-1762.8,1311.8-1771.2,1299.5-1771.2L1299.5-1771.2z"/>
					</g>
					<circle class="st2" cx="1312.3" cy="-1742.4" r="10.8"/>
					<circle class="st1" cx="1304.3" cy="-1748.3" r="4.9"/>
				</g>
				<g>
					<g>
						<path class="st1" d="M1386.9-1744.8c0,4.5-1.4,8.6-3.7,12.1c-3.9,5.8-10.4,9.5-17.9,9.5c-11.9,0-21.6-9.7-21.6-21.6
							s9.7-21.6,21.6-21.6c10.2,0,18.8,7.1,21,16.7C1386.7-1748.1,1386.9-1746.5,1386.9-1744.8z"/>
						<path class="st2" d="M1365.3-1766.4c10.2,0,18.8,7.1,21,16.7c0.4,1.6,0.6,3.2,0.6,4.9c0,4.5-1.4,8.6-3.7,12.1
							c-3.9,5.8-10.4,9.5-17.9,9.5c-11.9,0-21.6-9.7-21.6-21.6C1343.7-1756.7,1353.4-1766.4,1365.3-1766.4 M1365.3-1771.2
							c-14.5,0-26.4,11.8-26.4,26.4s11.8,26.4,26.4,26.4c8.8,0,17-4.4,21.9-11.6c2.9-4.3,4.5-9.4,4.5-14.7c0-2.1-0.2-4.1-0.7-6
							C1388.2-1762.8,1377.6-1771.2,1365.3-1771.2L1365.3-1771.2z"/>
					</g>
					<circle class="st2" cx="1378.2" cy="-1742.4" r="10.8"/>
					<circle class="st1" cx="1370.2" cy="-1748.3" r="4.9"/>
				</g>
			</g>
		</g>
	</g>
</g>
</svg>
