<svg width="20" height="18" viewBox="0 0 20 18" fill="none" xmlns="http://www.w3.org/2000/svg">
<path d="M19.4326 8.23411L11.8492 0.650777C11.4262 0.227736 10.7405 0.227736 10.3174 0.650777C9.89437 1.07382 9.89437 1.75957 10.3174 2.18261L16.0515 7.91669H1.33333C0.735333 7.91669 0.25 8.40203 0.25 9.00003C0.25 9.59803 0.735333 10.0834 1.33333 10.0834H16.0515L10.3174 15.8174C9.89437 16.2405 9.89437 16.9262 10.3174 17.3493C10.5292 17.5611 10.806 17.6667 11.0833 17.6667C11.3607 17.6667 11.6375 17.5611 11.8492 17.3493L19.4326 9.76594C19.8556 9.3429 19.8556 8.65715 19.4326 8.23411Z" fill="#25344F"/>
</svg>
