<svg width="22" height="22" viewBox="0 0 22 22" fill="none" xmlns="http://www.w3.org/2000/svg">
<path d="M9.39583 2.75C5.73358 2.75 2.75 5.73358 2.75 9.39583C2.75 13.0581 5.73358 16.0417 9.39583 16.0417C10.98 16.0417 12.4363 15.4821 13.5799 14.5521L18.0764 19.0486C18.1398 19.1146 18.2156 19.1672 18.2996 19.2035C18.3836 19.2398 18.4739 19.259 18.5654 19.2599C18.6569 19.2608 18.7476 19.2435 18.8323 19.2089C18.917 19.1744 18.9939 19.1232 19.0586 19.0586C19.1232 18.9939 19.1744 18.917 19.2089 18.8323C19.2435 18.7476 19.2608 18.6569 19.2599 18.5654C19.259 18.4739 19.2398 18.3836 19.2035 18.2996C19.1672 18.2156 19.1146 18.1398 19.0486 18.0764L14.5521 13.5799C15.4821 12.4363 16.0417 10.98 16.0417 9.39583C16.0417 5.73358 13.0581 2.75 9.39583 2.75ZM9.39583 4.125C12.315 4.125 14.6667 6.47669 14.6667 9.39583C14.6667 10.8179 14.1058 12.1026 13.1959 13.0491C13.1398 13.0903 13.0903 13.1398 13.0491 13.1959C12.1026 14.1058 10.8179 14.6667 9.39583 14.6667C6.47669 14.6667 4.125 12.315 4.125 9.39583C4.125 6.47669 6.47669 4.125 9.39583 4.125Z" fill="#25344F"/>
</svg>
