<svg width="26" height="26" viewBox="0 0 26 26" fill="none" xmlns="http://www.w3.org/2000/svg">
<path d="M22.2866 3.26276C21.9265 3.22458 21.5352 3.28081 21.1419 3.43627C20.6544 3.62802 13.0156 6.84135 5.89486 9.83894L3.54199 10.8292C2.63091 11.1986 2.1709 11.7994 2.1709 12.6086C2.1709 13.1752 2.41069 13.9437 3.55469 14.3966L7.5262 15.9877C7.86962 17.0179 8.66726 19.41 8.86768 20.046C8.98684 20.423 9.28784 21.3727 10.0483 21.5948C10.2043 21.6479 10.3671 21.6752 10.5329 21.6752C11.0128 21.6752 11.3583 21.4518 11.5273 21.3218L14.0516 19.1869L17.1175 22.0222C17.2356 22.1425 17.8606 22.7501 18.7002 22.7501C19.7478 22.7501 20.5424 21.878 20.7082 21.0341C20.7981 20.5715 23.755 5.72772 23.755 5.72989C24.0205 4.5393 23.5432 3.92169 23.2367 3.65844C22.9739 3.43364 22.6467 3.30095 22.2866 3.26276ZM21.5693 5.60293C21.1609 7.65043 18.9345 18.8265 18.5965 20.4374L14.1151 16.2924L11.0745 18.8674L11.9167 15.573C11.9167 15.573 17.7261 9.6925 18.076 9.35017C18.3577 9.07608 18.4167 8.98001 18.4167 8.88467C18.4167 8.75792 18.3514 8.66674 18.2008 8.66674C18.0654 8.66674 17.8815 8.7965 17.784 8.85717C16.5454 9.62938 11.2711 12.6342 8.67513 14.1109L4.90885 12.6065L6.73698 11.8384C11.3942 9.87762 19.6887 6.3851 21.5693 5.60293Z" fill="#0CBA7A"/>
</svg>
