<?xml version="1.0" encoding="UTF-8"?><svg id="_лой_2" xmlns="http://www.w3.org/2000/svg" viewBox="0 0 42 42"><defs><style>.cls-1{fill:#fff;}.cls-2{fill:#30ca4b;}</style></defs><g id="sm"><rect class="cls-1" width="42" height="42"/><path class="cls-2" d="M26.05,13.03c4.39,0,7.97,3.57,7.97,7.97s-3.57,7.97-7.97,7.97H7.99v-7.97c0-4.39,3.57-7.97,7.97-7.97h10.09m0-.8H15.95c-4.84,0-8.77,3.92-8.77,8.77v8.77H26.05c4.84,0,8.77-3.92,8.77-8.77s-3.92-8.77-8.77-8.77h0Z"/><g><g><g><path class="cls-1" d="M19.23,21c0,.7-.21,1.35-.58,1.89-.6,.9-1.63,1.49-2.8,1.49-1.86,0-3.37-1.51-3.37-3.37s1.51-3.37,3.37-3.37c1.6,0,2.94,1.11,3.28,2.6,.06,.25,.09,.51,.09,.77Z"/><path class="cls-2" d="M15.85,17.63c1.6,0,2.94,1.11,3.28,2.6,.06,.25,.09,.51,.09,.77,0,.7-.21,1.35-.58,1.89-.6,.9-1.63,1.49-2.8,1.49-1.86,0-3.37-1.51-3.37-3.37s1.51-3.37,3.37-3.37m0-.75c-2.27,0-4.12,1.85-4.12,4.12s1.85,4.12,4.12,4.12c1.38,0,2.65-.68,3.42-1.82,.46-.68,.7-1.48,.7-2.3,0-.32-.04-.64-.11-.94-.43-1.87-2.08-3.18-4.01-3.18h0Z"/></g><circle class="cls-2" cx="17.87" cy="21.37" r="1.69"/><circle class="cls-1" cx="16.62" cy="20.45" r=".76"/></g><g><g><path class="cls-1" d="M29.52,21c0,.7-.21,1.35-.58,1.89-.6,.9-1.63,1.49-2.8,1.49-1.86,0-3.37-1.51-3.37-3.37s1.51-3.37,3.37-3.37c1.6,0,2.94,1.11,3.28,2.6,.06,.25,.09,.51,.09,.77Z"/><path class="cls-2" d="M26.15,17.63c1.6,0,2.94,1.11,3.28,2.6,.06,.25,.09,.51,.09,.77,0,.7-.21,1.35-.58,1.89-.6,.9-1.63,1.49-2.8,1.49-1.86,0-3.37-1.51-3.37-3.37s1.51-3.37,3.37-3.37m0-.75c-2.27,0-4.12,1.85-4.12,4.12s1.85,4.12,4.12,4.12c1.38,0,2.65-.68,3.42-1.82,.46-.68,.7-1.48,.7-2.3,0-.32-.04-.64-.11-.94-.43-1.87-2.08-3.18-4.01-3.18h0Z"/></g><circle class="cls-2" cx="28.16" cy="21.37" r="1.69"/><circle class="cls-1" cx="26.91" cy="20.45" r=".76"/></g></g></g></svg>