<svg width="805" height="720" viewBox="0 0 805 720" fill="none" xmlns="http://www.w3.org/2000/svg">
<mask id="mask0_1_21" style="mask-type:alpha" maskUnits="userSpaceOnUse" x="0" y="0" width="805" height="720">
<rect x="805" width="720" height="805" transform="rotate(90 805 0)" fill="#D9D9D9"/>
<rect x="805" width="720" height="805" transform="rotate(90 805 0)" fill="#30CA4C"/>
</mask>
<g mask="url(#mask0_1_21)">
<rect x="805" width="720" height="805" transform="rotate(90 805 0)" fill="#D9D9D9"/>
<rect x="805" width="720" height="805" transform="rotate(90 805 0)" fill="#30CA4C"/>
<path d="M-3 228.983V332.521L29.2033 310.325L-3 228.983Z" fill="#32D750"/>
<path d="M-3 632.358V674.055L29.2033 630.947L-3 632.358Z" fill="#32D750"/>
<path d="M873.291 917.569L793.745 944.512L755.255 796.967L655.951 858.551L480.693 678.931L521.749 540.367L414.875 587.453L444.769 704.078L664.162 961.191L725.746 873.947L779.632 1012.51L837.367 1007.38L845.065 1094.62L812.348 1119H889.072L897.54 1112.71L873.291 917.569Z" fill="#32D750"/>
<path d="M129.149 1067.68L111.187 908.588L306.203 875.23L301.071 653.271L386.647 960.293L455.672 953.108L373.047 757.964L588.463 1031.76L316.467 981.719L344.693 919.622L253.6 923.214L297.992 1046.25L678.273 1083.08L316.467 582.706L575.633 492.896L524.313 634.026L619.255 618.63L672.756 719.602L768.083 682.395L638.5 569.876L596.161 580.14L638.5 423.614L234.355 530.103L254.883 831.608L54.735 849.57L86.81 1018.93H48.32L29.2033 870.098L-3 933.221V961.832L26.509 1068.96L129.149 1067.68Z" fill="#32D750"/>
<path d="M344.687 207.557V269.141L277.073 202.553L519.303 95.9357L436.55 47.8232L217.285 197.421L265.269 301.857L326.853 315.329L386.513 451.84L467.342 434.648L369.192 309.555L424.875 290.31L509.681 423.614L600.132 400.007L424.875 226.802L344.687 207.557Z" fill="#32D750"/>
<path d="M129.152 -15.172L326.734 43.846L168.54 123.905L185.219 177.919L415.903 30.2462L260.018 -48.53L371.126 -136.929L522.905 -38.5226L490.958 4.07298L369.202 -98.4387L316.47 -53.662L519.569 62.0646L560.369 -13.5041L624.262 20.3671L578.972 78.6153L640.556 112.615L665.19 43.3328L732.162 84.902L638.503 151.618L549.976 110.562L421.676 184.976L633.5 385.765L811.708 451.84L852.764 354.332L657.877 354.973L516.618 197.806L580.768 159.316L638.503 192.032L821.074 82.7209L441.563 -164H344.311L293.376 -120.378L278.75 -164H210.623L244.622 -94.718L129.152 -15.172Z" fill="#32D750"/>
<path d="M873.287 -46.349L1035.2 88.4943L781.938 226.417L804.005 249.896H906.388L970.795 195.24L1067.02 364.596L1126.04 324.823L1011.85 175.995L1068.43 135.837L1161.96 297.88L1220.08 258.748L991.58 -25.4361L1088.96 -39.4208L1125.4 22.0349L1078.44 30.631L1130.53 99.0149L1150.42 78.4869L1262.04 283.767L1069.71 411.554L998.508 332.649L973.489 423.614L1085.11 467.364L1280 332.521V228.983L1145.28 -111.525L873.287 -46.349Z" fill="#32D750"/>
<path d="M781.932 743.081L801.434 882.928L879.697 866.249L1016.98 741.798L956.164 732.817L1027.24 562.178L664.153 423.614L638.493 545.499L679.549 532.669L781.932 663.535L846.339 576.291L787.321 532.669L781.932 594.253L696.228 467.364L966.941 583.989L888.678 735.383L933.583 768.741L832.867 818.778L821.192 732.047L928.451 598.102L871.999 589.121L795.019 704.078L655.942 741.798L606.418 654.554L532.004 681.497L669.285 809.797L781.932 743.081Z" fill="#32D750"/>
<path d="M82.961 693.044L141.979 709.723L79.112 537.416L29.2033 540.367L58.584 451.84L28.5618 423.614L189.45 350.483L242.181 406.935L85.527 451.84L179.186 723.836L167.639 764.892L80.395 731.021L66.282 818.778L215.11 804.665L216.393 719.987L170.846 491.613L344.693 464.67L61.15 82.336L68.848 47.0535L157.375 95.166L242.053 61.808L72.697 -2.342L198.431 -113.963L168.281 -164H131.587L4.698 -22.87L-3 17.0313V110.177L150.96 294.031L102.206 329.955L109.904 282.484L67.565 232.575L17.528 223.081L63.716 309.555L45.6257 356.77L-3 385.766V592.585L57.301 591.43L82.961 693.044Z" fill="#32D750"/>
<path d="M1231.38 476.987L1077.42 498.156L921.536 451.84L969.007 289.027L600.145 249.896L669.426 329.442L909.989 323.027L842.631 473.138L1063.95 548.193L998.516 717.549L1063.95 731.02L894.593 883.056L956.177 1108.86L940.781 1119H1018.92L944.63 898.452L1144.78 704.077L1060.1 686.757L1112.06 548.193L1175.57 542.419L1115.91 659.814L1227.53 682.908L1060.1 867.66L1227.53 936.942L1280.01 830.71V769.895L1229.46 776.567L1212.14 873.433L1154.4 842.641L1280.01 674.055V632.358L1183.27 636.72L1231.38 476.987Z" fill="#32D750"/>
<path d="M655.948 207.557L709.834 232.575L983.113 86.3133L763.849 -70.7259L889.069 -164H812.346L717.532 -93.435L691.103 -107.933L768.083 -164H696.106L646.839 -132.695L606.425 -164H488.773L884.451 81.9511L655.948 207.557Z" fill="#32D750"/>
</g>
</svg>
