<svg width="26" height="26" viewBox="0 0 26 26" fill="none" xmlns="http://www.w3.org/2000/svg">
<g clip-path="url(#clip0_526_141)">
<path d="M7.95164 10.9253L13.0008 5.87634L18.0527 10.928L20.9906 7.99002L13.0008 0L5.01367 7.98735L7.95164 10.9253Z" fill="#F3BA2F"/>
<path d="M5.87541 12.9994L2.9375 10.0615L-0.000558872 12.9996L2.93736 15.9375L5.87541 12.9994Z" fill="#F3BA2F"/>
<path d="M7.95009 15.0738L12.9993 20.1227L18.0509 15.0713L20.9905 18.0076L20.9891 18.0093L12.9993 25.9991L5.01192 18.0119L5.00781 18.0078L7.95009 15.0738Z" fill="#F3BA2F"/>
<path d="M23.0619 15.939L26 13.001L23.0621 10.0631L20.124 13.0011L23.0619 15.939Z" fill="#F3BA2F"/>
<path d="M15.9804 12.9979H15.9816L13.0003 10.0166L10.7971 12.2198H10.7969L10.5439 12.473L10.0217 12.9952L10.0176 12.9993L10.0217 13.0036L13.0003 15.9823L15.9816 13.001L15.983 12.9993L15.9804 12.9979Z" fill="#F3BA2F"/>
</g>
<defs>
<clipPath id="clip0_526_141">
<rect width="26" height="26" fill="white"/>
</clipPath>
</defs>
</svg>
