<svg width="675" height="101" viewBox="0 0 675 101" fill="none" xmlns="http://www.w3.org/2000/svg">
<rect x="1.5" y="1.5" width="672" height="97.3012" rx="10.5" fill="#212531" fill-opacity="0.1"/>
<rect x="1.5" y="1.5" width="672" height="97.3012" rx="10.5" fill="#E9EBEE"/>
<rect x="1.5" y="1.5" width="672" height="97.3012" rx="10.5" stroke="white" stroke-width="3"/>
<rect x="77.1094" y="13.5537" width="72.2892" height="72.2892" rx="36.1446" fill="#CBCDD0"/>
<path d="M137.891 22.7299H142.951L134.161 44.5547H129.973L121.183 22.7299H126.371L132.131 38.1373L137.891 22.7299ZM148.925 27.6751C148.43 28.1229 147.786 28.3469 146.996 28.3469C146.205 28.3469 145.557 28.1229 145.052 27.6751C144.556 27.2177 144.309 26.627 144.309 25.9028C144.309 25.1787 144.556 24.5879 145.052 24.1305C145.557 23.6732 146.205 23.4445 146.996 23.4445C147.786 23.4445 148.43 23.6732 148.925 24.1305C149.43 24.5879 149.683 25.1787 149.683 25.9028C149.683 26.627 149.43 27.2177 148.925 27.6751ZM144.795 44.5547V30.2621H149.197V44.5547H144.795ZM159.416 45.0692C157.939 45.0692 156.6 44.7453 155.4 44.0973C154.209 43.4494 153.27 42.5442 152.584 41.3817C151.908 40.2097 151.569 38.89 151.569 37.4227C151.569 35.2025 152.312 33.3731 153.799 31.9343C155.295 30.486 157.172 29.7618 159.43 29.7618C160.278 29.7618 160.993 29.8523 161.574 30.0334C162.165 30.2144 162.76 30.4907 163.361 30.8624L163.632 34.7357C163.175 34.3164 162.598 33.9829 161.903 33.7352C161.207 33.4874 160.488 33.3636 159.745 33.3636C158.611 33.3636 157.667 33.7495 156.915 34.5213C156.162 35.2931 155.786 36.2602 155.786 37.4227C155.786 38.5851 156.162 39.5523 156.915 40.3241C157.667 41.0863 158.616 41.4675 159.759 41.4675C160.474 41.4675 161.16 41.3436 161.817 41.0959C162.484 40.8481 163.056 40.5146 163.532 40.0954L163.446 43.9687C162.856 44.3308 162.251 44.6023 161.631 44.7834C161.012 44.9739 160.273 45.0692 159.416 45.0692ZM164.79 33.0777L170.864 26.1744H171.722V30.2621H175.795V34.1354H171.722V38.6661C171.722 40.2574 172.308 41.053 173.48 41.053C174.509 41.053 175.5 40.8434 176.453 40.4241L176.295 44.3403C175.962 44.4928 175.671 44.6119 175.424 44.6976C175.176 44.7834 174.823 44.8644 174.366 44.9406C173.918 45.0168 173.418 45.0549 172.865 45.0549C170.893 45.0549 169.473 44.5356 168.606 43.497C167.749 42.4584 167.32 40.9911 167.32 39.0949V34.1354H164.79V33.0777ZM185.671 45.0692C183.318 45.0692 181.379 44.3546 179.854 42.9253C178.339 41.4865 177.582 39.6571 177.582 37.437C177.582 35.1978 178.339 33.3588 179.854 31.92C181.379 30.4812 183.323 29.7618 185.686 29.7618C188.058 29.7618 190.007 30.4812 191.531 31.92C193.065 33.3588 193.833 35.1978 193.833 37.437C193.833 39.6571 193.065 41.4865 191.531 42.9253C190.007 44.3546 188.054 45.0692 185.671 45.0692ZM185.729 41.3531C186.853 41.3531 187.782 40.9863 188.516 40.2526C189.249 39.5189 189.616 38.5756 189.616 37.4227C189.616 36.2697 189.245 35.3217 188.501 34.5784C187.768 33.8352 186.839 33.4636 185.714 33.4636C184.59 33.4636 183.656 33.8352 182.913 34.5784C182.17 35.3217 181.798 36.2697 181.798 37.4227C181.798 38.5756 182.17 39.5189 182.913 40.2526C183.656 40.9863 184.595 41.3531 185.729 41.3531ZM205.853 30.1191L206.124 34.1211C205.095 33.7876 204.266 33.6208 203.637 33.6208C202.475 33.6208 201.479 34.1878 200.65 35.3217V44.5547L196.248 44.5547V30.2621H199.978L200.464 31.7628C201.579 30.4288 202.78 29.7618 204.066 29.7618C204.79 29.7618 205.386 29.8809 205.853 30.1191ZM216.2 44.5547V22.7299H220.888V44.5547H216.2ZM233.452 30.2764H237.925L232.508 44.5547H228.149L222.775 30.2764L227.592 30.2764L230.422 39.2235H230.579L233.452 30.2764ZM245.172 29.7761C247.439 29.7761 249.135 30.324 250.26 31.4198C251.384 32.506 251.946 34.1068 251.946 36.2221L251.918 44.5547H248.216L247.73 43.154C247.13 43.7352 246.429 44.2021 245.629 44.5547C244.829 44.8977 244.023 45.0692 243.214 45.0692C241.794 45.0692 240.679 44.6786 239.869 43.8972C239.069 43.1064 238.668 42.0154 238.668 40.6242C238.668 39.2712 239.15 38.1754 240.112 37.3369C241.074 36.4889 242.361 36.0649 243.971 36.0649C244.981 36.0649 246.167 36.1602 247.53 36.3507V36.2936C247.53 35.3217 247.306 34.6261 246.858 34.2068C246.41 33.7781 245.6 33.5637 244.428 33.5637C242.628 33.5637 240.912 34.0163 239.283 34.9215L239.655 31.0625C241.303 30.2049 243.142 29.7761 245.172 29.7761ZM244.671 41.9248C245.186 41.9248 245.691 41.8105 246.186 41.5818C246.691 41.3436 247.139 41.0054 247.53 40.567V38.6518C246.672 38.4803 245.82 38.3946 244.972 38.3946C243.457 38.3946 242.689 39.0139 242.67 40.2526C242.67 40.7576 242.842 41.1626 243.185 41.4675C243.528 41.7724 244.023 41.9248 244.671 41.9248ZM263.838 29.7618C267.382 29.7618 269.155 32.0677 269.155 36.6795V44.5547H264.753V36.5937C264.753 34.526 263.971 33.4922 262.409 33.4922C261.846 33.4922 261.303 33.6447 260.779 33.9496C260.265 34.2545 259.831 34.6404 259.479 35.1073V44.5547H255.076V30.2621L258.807 30.2621L259.293 31.7199C259.95 31.1292 260.679 30.6575 261.48 30.3049C262.289 29.9429 263.076 29.7618 263.838 29.7618ZM279.517 45.0692C277.163 45.0692 275.224 44.3546 273.7 42.9253C272.185 41.4865 271.427 39.6571 271.427 37.437C271.427 35.1978 272.185 33.3588 273.7 31.92C275.224 30.4812 277.168 29.7618 279.531 29.7618C281.904 29.7618 283.852 30.4812 285.377 31.92C286.911 33.3588 287.678 35.1978 287.678 37.437C287.678 39.6571 286.911 41.4865 285.377 42.9253C283.852 44.3546 281.899 45.0692 279.517 45.0692ZM279.574 41.3531C280.698 41.3531 281.627 40.9863 282.361 40.2526C283.095 39.5189 283.462 38.5756 283.462 37.4227C283.462 36.2697 283.09 35.3217 282.347 34.5784C281.613 33.8352 280.684 33.4636 279.56 33.4636C278.435 33.4636 277.502 33.8352 276.758 34.5784C276.015 35.3217 275.643 36.2697 275.643 37.4227C275.643 38.5756 276.015 39.5189 276.758 40.2526C277.502 40.9863 278.44 41.3531 279.574 41.3531ZM298.683 30.2764L303.157 30.2764L297.74 44.5547L293.381 44.5547L288.007 30.2764H292.823L295.653 39.2235H295.81L298.683 30.2764Z" fill="#212531"/>
<path d="M124.786 61.8221C125.396 61.5699 126.032 61.4438 126.695 61.4438C127.357 61.4438 127.99 61.5699 128.594 61.8221C129.204 62.0742 129.729 62.4143 130.169 62.8423C130.609 63.2645 130.957 63.7717 131.215 64.3639C131.473 64.9503 131.602 65.566 131.602 66.211C131.602 66.8501 131.506 67.4277 131.312 67.9437C131.125 68.4597 130.752 69.1604 130.195 70.0458L126.941 75.2087H124.909L128.243 70.1162C127.615 70.5853 126.92 70.8198 126.158 70.8198C124.944 70.8198 123.912 70.38 123.062 69.5005C122.212 68.6151 121.787 67.5186 121.787 66.211C121.787 65.566 121.916 64.9503 122.174 64.3639C122.432 63.7717 122.781 63.2645 123.22 62.8423C123.66 62.4143 124.182 62.0742 124.786 61.8221ZM126.686 62.9655C125.806 62.9655 125.062 63.2762 124.452 63.8978C123.842 64.5193 123.537 65.2816 123.537 66.1846C123.537 67.0817 123.842 67.844 124.452 68.4714C125.062 69.0988 125.806 69.4125 126.686 69.4125C127.565 69.4125 128.313 69.0988 128.929 68.4714C129.55 67.844 129.861 67.0817 129.861 66.1846C129.861 65.2816 129.553 64.5193 128.937 63.8978C128.322 63.2762 127.571 62.9655 126.686 62.9655ZM136.308 61.8221C136.918 61.5699 137.554 61.4438 138.217 61.4438C138.879 61.4438 139.513 61.5699 140.116 61.8221C140.726 62.0742 141.251 62.4143 141.691 62.8423C142.131 63.2645 142.48 63.7717 142.738 64.3639C142.996 64.9503 143.125 65.566 143.125 66.211C143.125 66.8501 143.028 67.4277 142.834 67.9437C142.647 68.4597 142.274 69.1604 141.717 70.0458L138.463 75.2087H136.431L139.765 70.1162C139.137 70.5853 138.442 70.8198 137.68 70.8198C136.466 70.8198 135.434 70.38 134.584 69.5005C133.734 68.6151 133.309 67.5186 133.309 66.211C133.309 65.566 133.438 64.9503 133.696 64.3639C133.954 63.7717 134.303 63.2645 134.742 62.8423C135.182 62.4143 135.704 62.0742 136.308 61.8221ZM138.208 62.9655C137.328 62.9655 136.584 63.2762 135.974 63.8978C135.364 64.5193 135.059 65.2816 135.059 66.1846C135.059 67.0817 135.364 67.844 135.974 68.4714C136.584 69.0988 137.328 69.4125 138.208 69.4125C139.087 69.4125 139.835 69.0988 140.451 68.4714C141.072 67.844 141.383 67.0817 141.383 66.1846C141.383 65.2816 141.075 64.5193 140.459 63.8978C139.844 63.2762 139.093 62.9655 138.208 62.9655ZM147.83 61.8221C148.44 61.5699 149.076 61.4438 149.739 61.4438C150.401 61.4438 151.035 61.5699 151.639 61.8221C152.248 62.0742 152.773 62.4143 153.213 62.8423C153.653 63.2645 154.002 63.7717 154.26 64.3639C154.518 64.9503 154.647 65.566 154.647 66.211C154.647 66.8501 154.55 67.4277 154.356 67.9437C154.169 68.4597 153.796 69.1604 153.239 70.0458L149.985 75.2087H147.953L151.287 70.1162C150.659 70.5853 149.964 70.8198 149.202 70.8198C147.988 70.8198 146.956 70.38 146.106 69.5005C145.256 68.6151 144.831 67.5186 144.831 66.211C144.831 65.566 144.96 64.9503 145.218 64.3639C145.476 63.7717 145.825 63.2645 146.264 62.8423C146.704 62.4143 147.226 62.0742 147.83 61.8221ZM149.73 62.9655C148.85 62.9655 148.106 63.2762 147.496 63.8978C146.886 64.5193 146.581 65.2816 146.581 66.1846C146.581 67.0817 146.886 67.844 147.496 68.4714C148.106 69.0988 148.85 69.4125 149.73 69.4125C150.609 69.4125 151.357 69.0988 151.973 68.4714C152.594 67.844 152.905 67.0817 152.905 66.1846C152.905 65.2816 152.597 64.5193 151.982 63.8978C151.366 63.2762 150.615 62.9655 149.73 62.9655ZM159.352 61.8221C159.962 61.5699 160.598 61.4438 161.261 61.4438C161.923 61.4438 162.557 61.5699 163.161 61.8221C163.77 62.0742 164.295 62.4143 164.735 62.8423C165.175 63.2645 165.524 63.7717 165.782 64.3639C166.04 64.9503 166.169 65.566 166.169 66.211C166.169 66.8501 166.072 67.4277 165.878 67.9437C165.691 68.4597 165.318 69.1604 164.761 70.0458L161.507 75.2087H159.475L162.809 70.1162C162.181 70.5853 161.486 70.8198 160.724 70.8198C159.51 70.8198 158.478 70.38 157.628 69.5005C156.778 68.6151 156.353 67.5186 156.353 66.211C156.353 65.566 156.482 64.9503 156.74 64.3639C156.998 63.7717 157.347 63.2645 157.787 62.8423C158.226 62.4143 158.748 62.0742 159.352 61.8221ZM161.252 62.9655C160.372 62.9655 159.628 63.2762 159.018 63.8978C158.408 64.5193 158.103 65.2816 158.103 66.1846C158.103 67.0817 158.408 67.844 159.018 68.4714C159.628 69.0988 160.372 69.4125 161.252 69.4125C162.131 69.4125 162.879 69.0988 163.495 68.4714C164.116 67.844 164.427 67.0817 164.427 66.1846C164.427 65.2816 164.119 64.5193 163.504 63.8978C162.888 63.2762 162.137 62.9655 161.252 62.9655ZM170.874 61.8221C171.484 61.5699 172.12 61.4438 172.783 61.4438C173.445 61.4438 174.079 61.5699 174.683 61.8221C175.292 62.0742 175.817 62.4143 176.257 62.8423C176.697 63.2645 177.046 63.7717 177.304 64.3639C177.562 64.9503 177.691 65.566 177.691 66.211C177.691 66.8501 177.594 67.4277 177.4 67.9437C177.213 68.4597 176.84 69.1604 176.283 70.0458L173.029 75.2087H170.997L174.331 70.1162C173.703 70.5853 173.009 70.8198 172.246 70.8198C171.033 70.8198 170.001 70.38 169.15 69.5005C168.3 68.6151 167.875 67.5186 167.875 66.211C167.875 65.566 168.004 64.9503 168.262 64.3639C168.52 63.7717 168.869 63.2645 169.309 62.8423C169.748 62.4143 170.27 62.0742 170.874 61.8221ZM172.774 62.9655C171.894 62.9655 171.15 63.2762 170.54 63.8978C169.93 64.5193 169.625 65.2816 169.625 66.1846C169.625 67.0817 169.93 67.844 170.54 68.4714C171.15 69.0988 171.894 69.4125 172.774 69.4125C173.654 69.4125 174.401 69.0988 175.017 68.4714C175.638 67.844 175.949 67.0817 175.949 66.1846C175.949 65.2816 175.641 64.5193 175.026 63.8978C174.41 63.2762 173.659 62.9655 172.774 62.9655ZM186.9 64.5926V66.7211H189.309V68.2515H186.9V75.2087L185.184 75.2087V68.2515H183.522V66.7211H185.184V64.6014C185.184 63.9857 185.258 63.4492 185.404 62.9918C185.557 62.5345 185.765 62.1739 186.029 61.91C186.293 61.6461 186.589 61.4526 186.917 61.3295C187.251 61.2005 187.618 61.136 188.017 61.136C188.574 61.136 189.198 61.2562 189.89 61.4966L189.978 62.9567C189.503 62.7045 188.969 62.5785 188.377 62.5785C187.926 62.5785 187.565 62.728 187.295 63.027C187.031 63.3202 186.9 63.8421 186.9 64.5926ZM198.026 74.2149C197.129 75.0709 196.006 75.499 194.657 75.499C193.308 75.499 192.189 75.0709 191.297 74.2149C190.406 73.3529 189.96 72.2711 189.96 70.9693C189.96 70.1132 190.163 69.3392 190.567 68.6473C190.972 67.9554 191.532 67.413 192.247 67.0202C192.968 66.6273 193.775 66.4309 194.666 66.4309C196.009 66.4309 197.129 66.8648 198.026 67.7326C198.923 68.5946 199.371 69.6735 199.371 70.9693C199.371 72.2711 198.923 73.3529 198.026 74.2149ZM194.683 74.0301C195.54 74.0301 196.258 73.7399 196.838 73.1594C197.425 72.573 197.718 71.843 197.718 70.9693C197.718 70.0956 197.425 69.3656 196.838 68.7793C196.252 68.1929 195.531 67.8997 194.675 67.8997C193.807 67.8997 193.08 68.1929 192.493 68.7793C191.907 69.3656 191.614 70.0956 191.614 70.9693C191.614 71.843 191.907 72.573 192.493 73.1594C193.086 73.7399 193.816 74.0301 194.683 74.0301ZM201.315 75.2087V61.2767L203.03 61.2767V75.2087H201.315ZM205.607 75.2087V61.2767H207.323V75.2087H205.607ZM217.305 74.2149C216.408 75.0709 215.285 75.499 213.937 75.499C212.588 75.499 211.468 75.0709 210.577 74.2149C209.686 73.3529 209.24 72.2711 209.24 70.9693C209.24 70.1132 209.442 69.3392 209.847 68.6473C210.251 67.9554 210.811 67.413 211.527 67.0202C212.248 66.6273 213.054 66.4309 213.946 66.4309C215.288 66.4309 216.408 66.8648 217.305 67.7326C218.203 68.5946 218.651 69.6735 218.651 70.9693C218.651 72.2711 218.203 73.3529 217.305 74.2149ZM213.963 74.0301C214.819 74.0301 215.538 73.7399 216.118 73.1594C216.704 72.573 216.998 71.843 216.998 70.9693C216.998 70.0956 216.704 69.3656 216.118 68.7793C215.532 68.1929 214.81 67.8997 213.954 67.8997C213.087 67.8997 212.359 68.1929 211.773 68.7793C211.187 69.3656 210.894 70.0956 210.894 70.9693C210.894 71.843 211.187 72.573 211.773 73.1594C212.365 73.7399 213.095 74.0301 213.963 74.0301ZM231.035 66.7299H232.777L229.179 75.499H228.361L226.031 69.4565L223.691 75.4814H222.873L219.276 66.7299H221.026L223.304 72.3766L225.494 66.7299H226.558L228.757 72.3942L231.035 66.7299ZM241.59 70.6439C241.59 71.1658 241.563 71.5059 241.511 71.6642H235.011C235.081 72.315 235.398 72.875 235.961 73.3441C236.529 73.8073 237.227 74.0389 238.054 74.0389C238.47 74.0389 238.875 73.9891 239.268 73.8894C239.661 73.7839 239.983 73.6725 240.235 73.5552C240.487 73.4321 240.81 73.2591 241.203 73.0363L241.088 74.6458C240.783 74.8041 240.508 74.9361 240.262 75.0416C240.015 75.1472 239.669 75.2498 239.224 75.3495C238.784 75.455 238.338 75.5078 237.887 75.5078C236.99 75.5078 236.192 75.3055 235.494 74.9009C234.797 74.4963 234.26 73.9451 233.885 73.2474C233.51 72.5496 233.322 71.7639 233.322 70.8902C233.322 70.0399 233.51 69.2747 233.885 68.5946C234.266 67.9085 234.782 67.3779 235.433 67.0026C236.09 66.6214 236.82 66.4309 237.623 66.4309C238.866 66.4309 239.836 66.8267 240.534 67.6183C241.232 68.4099 241.584 69.4184 241.59 70.6439ZM235.028 70.2745H240.068C240.068 69.8699 240.001 69.5122 239.866 69.2014C239.731 68.8848 239.546 68.6356 239.312 68.4538C239.083 68.2662 238.825 68.1255 238.538 68.0316C238.256 67.9378 237.957 67.8909 237.641 67.8909C236.902 67.8909 236.28 68.102 235.776 68.5242C235.277 68.9464 235.028 69.5298 235.028 70.2745ZM248.564 66.6332L248.652 68.2164C248.207 68.0463 247.755 67.9613 247.298 67.9613C246.887 67.9613 246.495 68.0815 246.119 68.3219C245.75 68.5623 245.43 68.9053 245.161 69.351V75.2087H243.446V66.7211H244.914L245.117 67.7854C245.809 66.8824 246.591 66.4309 247.465 66.4309C247.905 66.4309 248.271 66.4983 248.564 66.6332ZM252.434 75.5078C251.531 75.5078 250.614 75.2556 249.681 74.7514L249.594 73.0363C250.766 73.7047 251.684 74.0331 252.347 74.0214C252.821 74.0096 253.206 73.9099 253.499 73.7223C253.792 73.5288 253.941 73.2503 253.947 72.8867C253.953 72.5877 253.827 72.3502 253.569 72.1743C253.311 71.9925 252.801 71.7345 252.039 71.4003C251.241 71.0661 250.658 70.6996 250.288 70.3009C249.925 69.8963 249.743 69.3861 249.743 68.7705C249.743 68.0727 249.989 67.5098 250.482 67.0817C250.98 66.6478 251.631 66.4309 252.434 66.4309C253.232 66.4309 254.035 66.6038 254.844 66.9498L254.932 68.6825C254.545 68.4773 254.135 68.3014 253.701 68.1548C253.267 68.0023 252.912 67.9261 252.637 67.9261C252.256 67.9261 251.954 68.0053 251.731 68.1636C251.508 68.316 251.397 68.5183 251.397 68.7705C251.397 68.9522 251.493 69.1164 251.687 69.263C251.88 69.4096 252.247 69.609 252.786 69.8611C253.736 70.2657 254.443 70.7172 254.906 71.2156C255.375 71.7081 255.607 72.2681 255.601 72.8955C255.595 73.7106 255.302 74.3497 254.721 74.8129C254.141 75.2762 253.379 75.5078 252.434 75.5078Z" fill="#212531"/>
</svg>
