<svg width="581" height="87" viewBox="0 0 581 87" fill="none" xmlns="http://www.w3.org/2000/svg">
<rect x="1.29063" y="1.29063" width="578.203" height="83.7199" rx="9.03441" fill="#212531" fill-opacity="0.1"/>
<rect x="1.29063" y="1.29063" width="578.203" height="83.7199" rx="9.03441" fill="#DFE1E4"/>
<rect x="1.29063" y="1.29063" width="578.203" height="83.7199" rx="9.03441" stroke="white" stroke-width="2.58126"/>
<rect x="83.3242" y="11.6619" width="62.1991" height="62.1991" rx="31.0995" fill="#CBCDD0"/>
<path d="M118.642 19.6048L122.996 19.6048L115.433 38.3833H111.83L104.266 19.6048H108.731L113.687 32.8617L118.642 19.6048ZM128.136 23.8598C127.71 24.2451 127.157 24.4378 126.476 24.4378C125.796 24.4378 125.238 24.2451 124.804 23.8598C124.377 23.4662 124.164 22.9579 124.164 22.3349C124.164 21.7118 124.377 21.2035 124.804 20.8099C125.238 20.4164 125.796 20.2197 126.476 20.2197C127.157 20.2197 127.71 20.4164 128.136 20.8099C128.571 21.2035 128.788 21.7118 128.788 22.3349C128.788 22.9579 128.571 23.4662 128.136 23.8598ZM124.582 38.3833V26.0856H128.37V38.3833H124.582ZM137.163 38.826C135.892 38.826 134.74 38.5473 133.707 37.9898C132.682 37.4323 131.875 36.6534 131.284 35.6532C130.702 34.6448 130.411 33.5093 130.411 32.2468C130.411 30.3365 131.051 28.7624 132.33 27.5245C133.617 26.2783 135.232 25.6552 137.175 25.6552C137.905 25.6552 138.52 25.7331 139.02 25.8889C139.528 26.0446 140.04 26.2824 140.557 26.6021L140.791 29.9348C140.397 29.5741 139.901 29.2871 139.303 29.074C138.704 28.8608 138.085 28.7542 137.446 28.7542C136.47 28.7542 135.658 29.0863 135.011 29.7503C134.363 30.4144 134.039 31.2466 134.039 32.2468C134.039 33.247 134.363 34.0791 135.011 34.7432C135.658 35.3991 136.474 35.727 137.458 35.727C138.073 35.727 138.663 35.6204 139.229 35.4073C139.803 35.1941 140.295 34.9072 140.704 34.5464L140.631 37.8791C140.122 38.1906 139.602 38.4243 139.069 38.5801C138.536 38.744 137.901 38.826 137.163 38.826ZM141.787 28.5083L147.013 22.5685H147.751V26.0856H151.256V29.4183H147.751V33.3167C147.751 34.6858 148.255 35.3704 149.264 35.3704C150.149 35.3704 151.002 35.19 151.822 34.8293L151.686 38.1988C151.399 38.33 151.149 38.4325 150.936 38.5063C150.723 38.5801 150.42 38.6498 150.026 38.7153C149.641 38.7809 149.21 38.8137 148.735 38.8137C147.038 38.8137 145.816 38.3669 145.07 37.4733C144.332 36.5796 143.963 35.3171 143.963 33.6856V29.4183H141.787V28.5083ZM159.754 38.826C157.729 38.826 156.06 38.2111 154.748 36.9814C153.445 35.7434 152.793 34.1693 152.793 32.2591C152.793 30.3324 153.445 28.7501 154.748 27.5122C156.06 26.2742 157.733 25.6552 159.766 25.6552C161.807 25.6552 163.484 26.2742 164.796 27.5122C166.116 28.7501 166.776 30.3324 166.776 32.2591C166.776 34.1693 166.116 35.7434 164.796 36.9814C163.484 38.2111 161.803 38.826 159.754 38.826ZM159.803 35.6286C160.77 35.6286 161.57 35.313 162.201 34.6817C162.832 34.0504 163.148 33.2388 163.148 32.2468C163.148 31.2548 162.828 30.439 162.188 29.7995C161.557 29.1601 160.758 28.8403 159.79 28.8403C158.823 28.8403 158.02 29.1601 157.38 29.7995C156.741 30.439 156.421 31.2548 156.421 32.2468C156.421 33.2388 156.741 34.0504 157.38 34.6817C158.02 35.313 158.827 35.6286 159.803 35.6286ZM177.118 25.9627L177.352 29.406C176.466 29.1191 175.753 28.9756 175.212 28.9756C174.212 28.9756 173.355 29.4634 172.642 30.439V38.3833L168.854 38.3833V26.0856H172.064L172.482 27.3769C173.441 26.2291 174.474 25.6552 175.581 25.6552C176.204 25.6552 176.716 25.7577 177.118 25.9627ZM186.021 38.3833V19.6048H190.055V38.3833H186.021ZM200.865 26.0979H204.714L200.053 38.3833H196.302L191.678 26.0979H195.823L198.258 33.7963H198.393L200.865 26.0979ZM210.949 25.6675C212.9 25.6675 214.359 26.1389 215.327 27.0817C216.294 28.0164 216.778 29.3937 216.778 31.2138L216.753 38.3833H213.568L213.15 37.1781C212.634 37.6782 212.031 38.08 211.342 38.3833C210.654 38.6784 209.961 38.826 209.264 38.826C208.042 38.826 207.083 38.4899 206.386 37.8176C205.698 37.1371 205.353 36.1984 205.353 35.0014C205.353 33.8373 205.767 32.8944 206.595 32.173C207.423 31.4433 208.53 31.0785 209.916 31.0785C210.785 31.0785 211.805 31.1605 212.978 31.3244V31.2753C212.978 30.439 212.785 29.8405 212.4 29.4798C212.015 29.1109 211.318 28.9264 210.309 28.9264C208.76 28.9264 207.284 29.3158 205.882 30.0947L206.202 26.7743C207.62 26.0364 209.202 25.6675 210.949 25.6675ZM210.518 36.1205C210.961 36.1205 211.396 36.0221 211.822 35.8254C212.256 35.6204 212.642 35.3294 212.978 34.9523V33.3044C212.24 33.1568 211.506 33.083 210.777 33.083C209.473 33.083 208.813 33.6159 208.797 34.6817C208.797 35.1162 208.944 35.4647 209.239 35.727C209.534 35.9894 209.961 36.1205 210.518 36.1205ZM227.009 25.6552C230.059 25.6552 231.584 27.6392 231.584 31.6073V38.3833L227.797 38.3833V31.5335C227.797 29.7544 227.124 28.8649 225.78 28.8649C225.296 28.8649 224.829 28.9961 224.378 29.2584C223.935 29.5208 223.562 29.8528 223.259 30.2545V38.3833H219.471V26.0856H222.681L223.099 27.34C223.665 26.8317 224.292 26.4259 224.98 26.1225C225.677 25.811 226.354 25.6552 227.009 25.6552ZM240.5 38.826C238.475 38.826 236.807 38.2111 235.495 36.9814C234.191 35.7434 233.54 34.1693 233.54 32.2591C233.54 30.3324 234.191 28.7501 235.495 27.5122C236.807 26.2742 238.479 25.6552 240.512 25.6552C242.554 25.6552 244.23 26.2742 245.542 27.5122C246.862 28.7501 247.522 30.3324 247.522 32.2591C247.522 34.1693 246.862 35.7434 245.542 36.9814C244.23 38.2111 242.55 38.826 240.5 38.826ZM240.549 35.6286C241.517 35.6286 242.316 35.313 242.947 34.6817C243.579 34.0504 243.894 33.2388 243.894 32.2468C243.894 31.2548 243.574 30.439 242.935 29.7995C242.304 29.1601 241.504 28.8403 240.537 28.8403C239.569 28.8403 238.766 29.1601 238.127 29.7995C237.487 30.439 237.167 31.2548 237.167 32.2468C237.167 33.2388 237.487 34.0504 238.127 34.6817C238.766 35.313 239.574 35.6286 240.549 35.6286ZM256.991 26.0979H260.84L256.18 38.3833H252.429L247.805 26.0979H251.949L254.384 33.7963H254.519L256.991 26.0979Z" fill="#212531"/>
<path d="M107.366 53.7052C107.891 53.4883 108.439 53.3798 109.009 53.3798C109.579 53.3798 110.124 53.4883 110.643 53.7052C111.168 53.9222 111.62 54.2148 111.998 54.5831C112.376 54.9463 112.677 55.3827 112.899 55.8923C113.12 56.3968 113.231 56.9266 113.231 57.4815C113.231 58.0315 113.148 58.5284 112.982 58.9724C112.82 59.4164 112.5 60.0193 112.021 60.7811L109.221 65.2234H107.472L110.341 60.8416C109.801 61.2453 109.203 61.4471 108.547 61.4471C107.503 61.4471 106.615 61.0687 105.883 60.3119C105.152 59.5501 104.786 58.6066 104.786 57.4815C104.786 56.9266 104.897 56.3968 105.119 55.8923C105.341 55.3827 105.641 54.9463 106.019 54.5831C106.398 54.2148 106.847 53.9222 107.366 53.7052ZM109.001 54.689C108.244 54.689 107.604 54.9564 107.079 55.4912C106.554 56.026 106.292 56.6819 106.292 57.4588C106.292 58.2307 106.554 58.8866 107.079 59.4265C107.604 59.9663 108.244 60.2362 109.001 60.2362C109.758 60.2362 110.401 59.9663 110.931 59.4265C111.466 58.8866 111.733 58.2307 111.733 57.4588C111.733 56.6819 111.468 56.026 110.938 55.4912C110.409 54.9564 109.763 54.689 109.001 54.689ZM117.28 53.7052C117.805 53.4883 118.352 53.3798 118.922 53.3798C119.493 53.3798 120.037 53.4883 120.557 53.7052C121.082 53.9222 121.533 54.2148 121.912 54.5831C122.29 54.9463 122.59 55.3827 122.812 55.8923C123.034 56.3968 123.145 56.9266 123.145 57.4815C123.145 58.0315 123.062 58.5284 122.896 58.9724C122.734 59.4164 122.414 60.0193 121.934 60.7811L119.134 65.2234H117.386L120.254 60.8416C119.715 61.2453 119.117 61.4471 118.461 61.4471C117.416 61.4471 116.529 61.0687 115.797 60.3119C115.065 59.5501 114.7 58.6066 114.7 57.4815C114.7 56.9266 114.811 56.3968 115.033 55.8923C115.255 55.3827 115.555 54.9463 115.933 54.5831C116.312 54.2148 116.761 53.9222 117.28 53.7052ZM118.915 54.689C118.158 54.689 117.517 54.9564 116.993 55.4912C116.468 56.026 116.206 56.6819 116.206 57.4588C116.206 58.2307 116.468 58.8866 116.993 59.4265C117.517 59.9663 118.158 60.2362 118.915 60.2362C119.672 60.2362 120.315 59.9663 120.845 59.4265C121.379 58.8866 121.647 58.2307 121.647 57.4588C121.647 56.6819 121.382 56.026 120.852 55.4912C120.323 54.9564 119.677 54.689 118.915 54.689ZM127.194 53.7052C127.719 53.4883 128.266 53.3798 128.836 53.3798C129.406 53.3798 129.951 53.4883 130.471 53.7052C130.996 53.9222 131.447 54.2148 131.826 54.5831C132.204 54.9463 132.504 55.3827 132.726 55.8923C132.948 56.3968 133.059 56.9266 133.059 57.4815C133.059 58.0315 132.976 58.5284 132.809 58.9724C132.648 59.4164 132.328 60.0193 131.848 60.7811L129.048 65.2234H127.3L130.168 60.8416C129.628 61.2453 129.031 61.4471 128.375 61.4471C127.33 61.4471 126.442 61.0687 125.711 60.3119C124.979 59.5501 124.613 58.6066 124.613 57.4815C124.613 56.9266 124.724 56.3968 124.946 55.8923C125.168 55.3827 125.469 54.9463 125.847 54.5831C126.225 54.2148 126.674 53.9222 127.194 53.7052ZM128.829 54.689C128.072 54.689 127.431 54.9564 126.906 55.4912C126.382 56.026 126.119 56.6819 126.119 57.4588C126.119 58.2307 126.382 58.8866 126.906 59.4265C127.431 59.9663 128.072 60.2362 128.829 60.2362C129.585 60.2362 130.229 59.9663 130.758 59.4265C131.293 58.8866 131.561 58.2307 131.561 57.4588C131.561 56.6819 131.296 56.026 130.766 55.4912C130.236 54.9564 129.591 54.689 128.829 54.689ZM137.108 53.7052C137.633 53.4883 138.18 53.3798 138.75 53.3798C139.32 53.3798 139.865 53.4883 140.385 53.7052C140.909 53.9222 141.361 54.2148 141.739 54.5831C142.118 54.9463 142.418 55.3827 142.64 55.8923C142.862 56.3968 142.973 56.9266 142.973 57.4815C142.973 58.0315 142.89 58.5284 142.723 58.9724C142.562 59.4164 142.241 60.0193 141.762 60.7811L138.962 65.2234H137.214L140.082 60.8416C139.542 61.2453 138.944 61.4471 138.288 61.4471C137.244 61.4471 136.356 61.0687 135.625 60.3119C134.893 59.5501 134.527 58.6066 134.527 57.4815C134.527 56.9266 134.638 56.3968 134.86 55.8923C135.082 55.3827 135.382 54.9463 135.761 54.5831C136.139 54.2148 136.588 53.9222 137.108 53.7052ZM138.743 54.689C137.986 54.689 137.345 54.9564 136.82 55.4912C136.296 56.026 136.033 56.6819 136.033 57.4588C136.033 58.2307 136.296 58.8866 136.82 59.4265C137.345 59.9663 137.986 60.2362 138.743 60.2362C139.499 60.2362 140.143 59.9663 140.672 59.4265C141.207 58.8866 141.474 58.2307 141.474 57.4588C141.474 56.6819 141.21 56.026 140.68 55.4912C140.15 54.9564 139.504 54.689 138.743 54.689ZM147.022 53.7052C147.546 53.4883 148.094 53.3798 148.664 53.3798C149.234 53.3798 149.779 53.4883 150.299 53.7052C150.823 53.9222 151.275 54.2148 151.653 54.5831C152.032 54.9463 152.332 55.3827 152.554 55.8923C152.776 56.3968 152.887 56.9266 152.887 57.4815C152.887 58.0315 152.803 58.5284 152.637 58.9724C152.476 59.4164 152.155 60.0193 151.676 60.7811L148.876 65.2234H147.128L149.996 60.8416C149.456 61.2453 148.858 61.4471 148.202 61.4471C147.158 61.4471 146.27 61.0687 145.538 60.3119C144.807 59.5501 144.441 58.6066 144.441 57.4815C144.441 56.9266 144.552 56.3968 144.774 55.8923C144.996 55.3827 145.296 54.9463 145.675 54.5831C146.053 54.2148 146.502 53.9222 147.022 53.7052ZM148.656 54.689C147.9 54.689 147.259 54.9564 146.734 55.4912C146.209 56.026 145.947 56.6819 145.947 57.4588C145.947 58.2307 146.209 58.8866 146.734 59.4265C147.259 59.9663 147.9 60.2362 148.656 60.2362C149.413 60.2362 150.056 59.9663 150.586 59.4265C151.121 58.8866 151.388 58.2307 151.388 57.4588C151.388 56.6819 151.123 56.026 150.594 55.4912C150.064 54.9564 149.418 54.689 148.656 54.689ZM160.81 56.0891V57.9205H162.884V59.2373H160.81V65.2234H159.334V59.2373H157.904V57.9205H159.334V56.0966C159.334 55.5669 159.398 55.1053 159.524 54.7117C159.655 54.3182 159.834 54.0079 160.061 53.7809C160.288 53.5539 160.543 53.3874 160.825 53.2814C161.113 53.1704 161.428 53.1149 161.771 53.1149C162.251 53.1149 162.788 53.2183 163.383 53.4252L163.459 54.6815C163.05 54.4645 162.591 54.356 162.082 54.356C161.693 54.356 161.383 54.4847 161.151 54.742C160.924 54.9943 160.81 55.4433 160.81 56.0891ZM170.383 64.3682C169.612 65.1048 168.645 65.4731 167.485 65.4731C166.325 65.4731 165.361 65.1048 164.594 64.3682C163.827 63.6266 163.444 62.6957 163.444 61.5757C163.444 60.8391 163.618 60.1731 163.966 59.5778C164.314 58.9825 164.796 58.5158 165.411 58.1778C166.032 57.8397 166.726 57.6707 167.493 57.6707C168.648 57.6707 169.612 58.0441 170.383 58.7908C171.155 59.5324 171.541 60.4607 171.541 61.5757C171.541 62.6957 171.155 63.6266 170.383 64.3682ZM167.508 64.2093C168.244 64.2093 168.862 63.9596 169.362 63.4601C169.866 62.9556 170.119 62.3274 170.119 61.5757C170.119 60.824 169.866 60.1959 169.362 59.6913C168.857 59.1868 168.237 58.9346 167.5 58.9346C166.753 58.9346 166.128 59.1868 165.623 59.6913C165.119 60.1959 164.867 60.824 164.867 61.5757C164.867 62.3274 165.119 62.9556 165.623 63.4601C166.133 63.9596 166.761 64.2093 167.508 64.2093ZM173.214 65.2234V53.236H174.69V65.2234H173.214ZM176.907 65.2234V53.236H178.383V65.2234H176.907ZM186.972 64.3682C186.2 65.1048 185.234 65.4731 184.074 65.4731C182.913 65.4731 181.95 65.1048 181.183 64.3682C180.416 63.6266 180.032 62.6957 180.032 61.5757C180.032 60.8391 180.206 60.1731 180.555 59.5778C180.903 58.9825 181.385 58.5158 182 58.1778C182.621 57.8397 183.314 57.6707 184.081 57.6707C185.237 57.6707 186.2 58.0441 186.972 58.7908C187.744 59.5324 188.13 60.4607 188.13 61.5757C188.13 62.6957 187.744 63.6266 186.972 64.3682ZM184.096 64.2093C184.833 64.2093 185.451 63.9596 185.95 63.4601C186.455 62.9556 186.707 62.3274 186.707 61.5757C186.707 60.824 186.455 60.1959 185.95 59.6913C185.446 59.1868 184.825 58.9346 184.089 58.9346C183.342 58.9346 182.716 59.1868 182.212 59.6913C181.707 60.1959 181.455 60.824 181.455 61.5757C181.455 62.3274 181.707 62.9556 182.212 63.4601C182.721 63.9596 183.35 64.2093 184.096 64.2093ZM198.785 57.928H200.284L197.189 65.4731H196.485L194.479 60.2741L192.466 65.458H191.762L188.667 57.928H190.173L192.133 62.7866L194.018 57.928H194.933L196.825 62.8017L198.785 57.928ZM207.867 61.2957C207.867 61.7447 207.844 62.0373 207.799 62.1736H202.206C202.267 62.7336 202.539 63.2154 203.023 63.619C203.513 64.0176 204.113 64.2169 204.824 64.2169C205.183 64.2169 205.531 64.174 205.869 64.0882C206.207 63.9974 206.484 63.9015 206.701 63.8006C206.918 63.6947 207.196 63.5459 207.534 63.3541L207.435 64.739C207.173 64.8753 206.936 64.9888 206.724 65.0796C206.512 65.1704 206.214 65.2587 205.831 65.3445C205.453 65.4353 205.069 65.4807 204.681 65.4807C203.909 65.4807 203.223 65.3066 202.622 64.9585C202.022 64.6104 201.56 64.1361 201.237 63.5358C200.914 62.9354 200.753 62.2593 200.753 61.5076C200.753 60.776 200.914 60.1177 201.237 59.5324C201.565 58.9421 202.009 58.4855 202.569 58.1626C203.134 57.8347 203.762 57.6707 204.454 57.6707C205.523 57.6707 206.358 58.0113 206.959 58.6924C207.559 59.3735 207.862 60.2413 207.867 61.2957ZM202.221 60.9779H206.558C206.558 60.6297 206.499 60.322 206.383 60.0546C206.267 59.7821 206.108 59.5677 205.907 59.4113C205.71 59.2499 205.488 59.1288 205.241 59.0481C204.999 58.9673 204.741 58.927 204.469 58.927C203.833 58.927 203.298 59.1086 202.864 59.4719C202.436 59.8351 202.221 60.3371 202.221 60.9779ZM213.868 57.8448L213.944 59.207C213.56 59.0607 213.172 58.9875 212.778 58.9875C212.425 58.9875 212.087 59.091 211.764 59.2978C211.446 59.5047 211.171 59.7998 210.939 60.1832V65.2234H209.464V57.9205H210.727L210.901 58.8362C211.497 58.0592 212.17 57.6707 212.922 57.6707C213.3 57.6707 213.616 57.7288 213.868 57.8448ZM217.198 65.4807C216.421 65.4807 215.631 65.2638 214.829 64.8299L214.753 63.3541C215.762 63.9293 216.552 64.2118 217.122 64.2017C217.531 64.1916 217.861 64.1059 218.114 63.9444C218.366 63.7779 218.494 63.5383 218.499 63.2255C218.505 62.9682 218.396 62.7639 218.174 62.6125C217.952 62.4561 217.513 62.2341 216.857 61.9465C216.171 61.659 215.669 61.3436 215.351 61.0006C215.038 60.6524 214.882 60.2135 214.882 59.6838C214.882 59.0834 215.094 58.599 215.518 58.2307C215.947 57.8574 216.507 57.6707 217.198 57.6707C217.884 57.6707 218.575 57.8196 219.271 58.1172L219.347 59.6081C219.014 59.4315 218.661 59.2801 218.288 59.154C217.914 59.0228 217.609 58.9573 217.372 58.9573C217.044 58.9573 216.784 59.0254 216.592 59.1616C216.401 59.2928 216.305 59.4668 216.305 59.6838C216.305 59.8402 216.388 59.9814 216.555 60.1076C216.721 60.2337 217.036 60.4052 217.501 60.6222C218.318 60.9703 218.926 61.3588 219.324 61.7876C219.728 62.2114 219.927 62.6932 219.922 63.2331C219.917 63.9343 219.665 64.4843 219.165 64.8828C218.666 65.2814 218.01 65.4807 217.198 65.4807Z" fill="#212531"/>
</svg>
