<svg width="22" height="22" viewBox="0 0 22 22" fill="none" xmlns="http://www.w3.org/2000/svg">
<path d="M14.6541 5.59293C17.8307 5.59293 20.4211 8.23888 20.4211 11.5C20.4211 14.7611 17.8379 17.4071 14.6541 17.4071H1.58611V11.5C1.58611 8.24629 4.16932 5.59293 7.35311 5.59293H14.6541ZM14.6541 5H7.34588C3.84371 5 1 7.90536 1 11.5V18H14.6541C18.1563 18 21 15.0946 21 11.5C21 7.90536 18.1635 5 14.6541 5Z" fill="#30CA4B"/>
<path d="M9.41291 11.2969C9.41291 11.7995 9.26213 12.2662 8.99647 12.6539C8.56566 13.3001 7.82612 13.7238 6.98605 13.7238C5.65056 13.7238 4.56638 12.6396 4.56638 11.3041C4.56638 9.96859 5.65056 8.8844 6.98605 8.8844C8.13486 8.8844 9.09699 9.68139 9.34111 10.7512C9.38419 10.9307 9.40573 11.1174 9.40573 11.3041L9.41291 11.2969Z" fill="white"/>
<path d="M6.98605 8.87721C8.13486 8.87721 9.09699 9.6742 9.34111 10.744C9.38419 10.9235 9.40573 11.1102 9.40573 11.2969C9.40573 11.7995 9.25495 12.2662 8.98928 12.6539C8.55848 13.3001 7.81894 13.7237 6.97887 13.7237C5.64338 13.7237 4.55919 12.6396 4.55919 11.3041C4.55919 9.96858 5.64338 8.88439 6.97887 8.88439M6.97887 8.34589C5.349 8.34589 4.02069 9.6742 4.02069 11.3041C4.02069 12.9339 5.349 14.2622 6.97887 14.2622C7.96972 14.2622 8.88158 13.774 9.43445 12.9555C9.76473 12.4672 9.93705 11.8928 9.93705 11.3041C9.93705 11.0743 9.90833 10.8445 9.85807 10.6291C9.54933 9.28647 8.36462 8.34589 6.97887 8.34589Z" fill="#30CA4B"/>
<path d="M8.43639 12.776C9.10655 12.776 9.64982 12.2327 9.64982 11.5625C9.64982 10.8924 9.10655 10.3491 8.43639 10.3491C7.76623 10.3491 7.22296 10.8924 7.22296 11.5625C7.22296 12.2327 7.76623 12.776 8.43639 12.776Z" fill="#30CA4B"/>
<path d="M7.53891 11.4477C7.84028 11.4477 8.08459 11.2034 8.08459 10.902C8.08459 10.6006 7.84028 10.3563 7.53891 10.3563C7.23754 10.3563 6.99323 10.6006 6.99323 10.902C6.99323 11.2034 7.23754 11.4477 7.53891 11.4477Z" fill="white"/>
<path d="M16.8012 11.2969C16.8012 11.7995 16.6504 12.2662 16.3847 12.6539C15.9539 13.3001 15.2144 13.7238 14.3743 13.7238C13.0388 13.7238 11.9546 12.6396 11.9546 11.3041C11.9546 9.96859 13.0388 8.8844 14.3743 8.8844C15.5231 8.8844 16.4852 9.68139 16.7294 10.7512C16.7724 10.9307 16.794 11.1174 16.794 11.3041L16.8012 11.2969Z" fill="white"/>
<path d="M14.3815 8.87721C15.5303 8.87721 16.4924 9.6742 16.7366 10.744C16.7796 10.9235 16.8012 11.1102 16.8012 11.2969C16.8012 11.7995 16.6504 12.2662 16.3847 12.6539C15.9539 13.3001 15.2144 13.7237 14.3743 13.7237C13.0388 13.7237 11.9546 12.6396 11.9546 11.3041C11.9546 9.96858 13.0388 8.88439 14.3743 8.88439M14.3743 8.34589C12.7444 8.34589 11.4161 9.6742 11.4161 11.3041C11.4161 12.9339 12.7444 14.2622 14.3743 14.2622C15.3652 14.2622 16.277 13.774 16.8299 12.9555C17.1602 12.4672 17.3325 11.8928 17.3325 11.3041C17.3325 11.0743 17.3038 10.8445 17.2535 10.6291C16.9448 9.28647 15.7601 8.34589 14.3743 8.34589Z" fill="#30CA4B"/>
<path d="M15.8247 12.776C16.4949 12.776 17.0381 12.2327 17.0381 11.5625C17.0381 10.8924 16.4949 10.3491 15.8247 10.3491C15.1545 10.3491 14.6113 10.8924 14.6113 11.5625C14.6113 12.2327 15.1545 12.776 15.8247 12.776Z" fill="#30CA4B"/>
<path d="M14.9272 11.4477C15.2285 11.4477 15.4728 11.2034 15.4728 10.902C15.4728 10.6006 15.2285 10.3563 14.9272 10.3563C14.6258 10.3563 14.3815 10.6006 14.3815 10.902C14.3815 11.2034 14.6258 11.4477 14.9272 11.4477Z" fill="white"/>
</svg>
