<svg width="66" height="42" viewBox="0 0 66 42" fill="none" xmlns="http://www.w3.org/2000/svg">
<path d="M20.6615 0H44.4515C55.8564 0 65.1129 9.22252 65.1129 20.5855C65.1129 31.9447 55.8564 41.1709 44.4515 41.1709H0V20.5855C0 9.22252 9.25658 0 20.6615 0Z" fill="#30CA4B"/>
<path d="M28.3734 20.5851C28.3734 22.2225 27.8686 23.7535 27.0137 25.0128C25.5913 27.1238 23.1703 28.5079 20.425 28.5079C16.0362 28.5079 12.4766 24.9614 12.4766 20.5887C12.4766 16.2161 16.0362 12.6696 20.425 12.6696C24.1873 12.6696 27.349 15.2836 28.1634 18.7861C28.3034 19.3662 28.3771 19.9756 28.3771 20.5887L28.3734 20.5851Z" fill="white"/>
<path d="M20.4244 12.6623C24.1868 12.6623 27.3485 15.2763 28.1628 18.7788C28.3029 19.3589 28.3766 19.9683 28.3766 20.5814C28.3766 22.2189 27.8717 23.7499 27.0168 25.0091C25.5944 27.1202 23.1734 28.5043 20.4281 28.5043C16.0394 28.5043 12.4797 24.9577 12.4797 20.5851C12.4797 16.2125 16.0394 12.6659 20.4281 12.6659M20.4281 10.9073C15.0702 10.9073 10.7109 15.2506 10.7109 20.5888C10.7109 25.927 15.0702 30.2702 20.4281 30.2702C23.6709 30.2702 26.6815 28.6732 28.4834 25.9967C29.5668 24.4034 30.1416 22.531 30.1416 20.5888C30.1416 19.8288 30.0532 19.0835 29.88 18.3713C28.863 13.984 24.9717 10.911 20.4244 10.911L20.4281 10.9073Z" fill="#212531"/>
<path d="M25.1753 25.428C27.3712 25.428 29.1513 23.6544 29.1513 21.4666C29.1513 19.2787 27.3712 17.5051 25.1753 17.5051C22.9794 17.5051 21.1992 19.2787 21.1992 21.4666C21.1992 23.6544 22.9794 25.428 25.1753 25.428Z" fill="#212531"/>
<path d="M22.2203 21.0811C23.2115 21.0811 24.0149 20.2806 24.0149 19.2931C24.0149 18.3056 23.2115 17.5051 22.2203 17.5051C21.2292 17.5051 20.4258 18.3056 20.4258 19.2931C20.4258 20.2806 21.2292 21.0811 22.2203 21.0811Z" fill="white"/>
<path d="M52.639 20.5851C52.639 22.2225 52.1342 23.7535 51.2793 25.0128C49.8569 27.1238 47.4359 28.5079 44.6906 28.5079C40.3018 28.5079 36.7422 24.9614 36.7422 20.5887C36.7422 16.2161 40.3018 12.6696 44.6906 12.6696C48.4529 12.6696 51.6146 15.2836 52.429 18.7861C52.569 19.3662 52.6427 19.9756 52.6427 20.5887L52.639 20.5851Z" fill="white"/>
<path d="M44.6901 12.6623C48.4524 12.6623 51.6141 15.2763 52.4285 18.7788C52.5685 19.3589 52.6422 19.9683 52.6422 20.5814C52.6422 22.2189 52.1373 23.7499 51.2824 25.0091C49.86 27.1202 47.439 28.5043 44.6938 28.5043C40.305 28.5043 36.7453 24.9577 36.7453 20.5851C36.7453 16.2125 40.305 12.6659 44.6938 12.6659M44.6938 10.9073C39.3358 10.9073 34.9766 15.2506 34.9766 20.5888C34.9766 25.927 39.3358 30.2702 44.6938 30.2702C47.9365 30.2702 50.9471 28.6732 52.749 25.9967C53.8324 24.4034 54.4073 22.531 54.4073 20.5888C54.4073 19.8288 54.3188 19.0835 54.1456 18.3713C53.1286 13.984 49.2373 10.911 44.6901 10.911L44.6938 10.9073Z" fill="#212531"/>
<path d="M49.437 25.428C51.6329 25.428 53.413 23.6544 53.413 21.4666C53.413 19.2787 51.6329 17.5051 49.437 17.5051C47.2411 17.5051 45.4609 19.2787 45.4609 21.4666C45.4609 23.6544 47.2411 25.428 49.437 25.428Z" fill="#212531"/>
<path d="M46.486 21.0811C47.4771 21.0811 48.2805 20.2806 48.2805 19.2931C48.2805 18.3056 47.4771 17.5051 46.486 17.5051C45.4949 17.5051 44.6914 18.3056 44.6914 19.2931C44.6914 20.2806 45.4949 21.0811 46.486 21.0811Z" fill="white"/>
</svg>
