<svg width="30" height="30" viewBox="0 0 30 30" fill="none" xmlns="http://www.w3.org/2000/svg">
<path d="M1 15C1 7.26801 7.26801 1 15 1C22.732 1 29 7.26801 29 15C29 22.732 22.732 29 15 29C7.26801 29 1 22.732 1 15Z" fill="#F4F5F8" stroke="white" stroke-width="1.5"/>
<path fill-rule="evenodd" clip-rule="evenodd" d="M3.33203 17.042C3.33203 16.6943 3.33203 15.0569 3.33203 14.7087C3.33203 14.0647 3.8547 13.542 4.4987 13.542C4.59903 13.542 5.56445 13.542 5.66536 13.542C6.30936 13.542 6.83203 14.0647 6.83203 14.7087C6.83203 15.0581 6.83203 16.6943 6.83203 17.042C6.83203 17.686 6.30936 18.2087 5.66536 18.2087C5.56445 18.2087 4.59903 18.2087 4.4987 18.2087C3.8547 18.2087 3.33203 17.686 3.33203 17.042Z" fill="#259A3A"/>
<path fill-rule="evenodd" clip-rule="evenodd" d="M26.668 17.042C26.668 16.6943 26.668 15.0569 26.668 14.7087C26.668 14.0647 26.1453 13.542 25.5013 13.542C25.401 13.542 24.4356 13.542 24.3346 13.542C23.6906 13.542 23.168 14.0647 23.168 14.7087C23.168 15.0581 23.168 16.6943 23.168 17.042C23.168 17.686 23.6906 18.2087 24.3346 18.2087C24.4356 18.2087 25.401 18.2087 25.5013 18.2087C26.1453 18.2087 26.668 17.686 26.668 17.042Z" fill="#259A3A"/>
<path d="M15.5852 5.37549H14.418V10.0416H15.5852V5.37549Z" fill="#1C732B"/>
<path d="M21.9987 8.29199H7.9987C6.38811 8.29199 5.08203 9.59866 5.08203 11.2087L5.08431 20.542C5.08431 22.1526 6.39098 23.4587 8.00098 23.4587H9.16536H21.9987C23.6087 23.4587 24.9154 22.1526 24.9154 20.542V11.2087C24.9154 9.59866 23.6087 8.29199 21.9987 8.29199Z" fill="#30CA4C"/>
<path d="M14.9987 6.54115C15.643 6.54115 16.1654 6.01908 16.1654 5.37507C16.1654 4.73106 15.643 4.20898 14.9987 4.20898C14.3544 4.20898 13.832 4.73106 13.832 5.37507C13.832 6.01908 14.3544 6.54115 14.9987 6.54115Z" fill="#259A3A"/>
<path d="M11.2083 15.8766C12.0137 15.8766 12.6667 15.2237 12.6667 14.4183C12.6667 13.6129 12.0137 12.96 11.2083 12.96C10.4029 12.96 9.75 13.6129 9.75 14.4183C9.75 15.2237 10.4029 15.8766 11.2083 15.8766Z" fill="white"/>
<path d="M18.7904 15.8766C19.5958 15.8766 20.2487 15.2237 20.2487 14.4183C20.2487 13.6129 19.5958 12.96 18.7904 12.96C17.9849 12.96 17.332 13.6129 17.332 14.4183C17.332 15.2237 17.9849 15.8766 18.7904 15.8766Z" fill="white"/>
<rect x="10.625" y="18.501" width="8.75" height="0.875" rx="0.4375" fill="white"/>
</svg>
